<mxfile host="Electron" modified="2024-05-02T12:21:44.957Z" agent="Mozilla/5.0 (Macintosh; Intel Mac OS X 10_15_7) AppleWebKit/537.36 (KHTML, like Gecko) draw.io/24.2.5 Chrome/120.0.6099.109 Electron/28.1.0 Safari/537.36" etag="Z8Iuj5ig-y4O_ZkgKrC1" version="24.2.5" type="device">
  <diagram name="150424" id="m9qa-WHbfBLWxVzqkJny">
    <mxGraphModel dx="2799" dy="2011" grid="0" gridSize="10" guides="1" tooltips="1" connect="0" arrows="0" fold="1" page="1" pageScale="1" pageWidth="1169" pageHeight="827" background="none" math="0" shadow="0">
      <root>
        <mxCell id="WXxtYBOuJOK_NInGcJ7v-0" />
        <mxCell id="WXxtYBOuJOK_NInGcJ7v-1" parent="WXxtYBOuJOK_NInGcJ7v-0" />
        <mxCell id="WXxtYBOuJOK_NInGcJ7v-31" value="&lt;b style=&quot;border-color: var(--border-color); color: rgb(0, 112, 242); font-size: 16px;&quot;&gt;Cloud leading authentication with SAP Cloud Identity Services&lt;/b&gt;" style="text;html=1;align=left;verticalAlign=middle;resizable=0;points=[];autosize=1;strokeColor=none;fillColor=none;fontSize=12;fontColor=#1d2d3e;fontFamily=Helvetica;" parent="WXxtYBOuJOK_NInGcJ7v-1" vertex="1">
          <mxGeometry x="-2320" y="-1640.9999999999998" width="492" height="31" as="geometry" />
        </mxCell>
        <mxCell id="WXxtYBOuJOK_NInGcJ7v-32" value="" style="group" parent="WXxtYBOuJOK_NInGcJ7v-1" vertex="1" connectable="0">
          <mxGeometry x="-2314" y="-920" width="655" height="73.25" as="geometry" />
        </mxCell>
        <mxCell id="WXxtYBOuJOK_NInGcJ7v-33" value="&lt;font face=&quot;arial&quot;&gt;&lt;b&gt;Recommended authentication flows and tools for SAP landscapes&lt;/b&gt;&lt;/font&gt;" style="text;html=1;align=left;verticalAlign=middle;resizable=0;points=[];autosize=1;strokeColor=none;fillColor=none;fontSize=12;fontColor=#1D2D3E;fontFamily=Helvetica;" parent="WXxtYBOuJOK_NInGcJ7v-32" vertex="1">
          <mxGeometry y="-3" width="396" height="26" as="geometry" />
        </mxCell>
        <UserObject label="&lt;span style=&quot;background-color: rgb(255, 255, 255);&quot;&gt;&lt;font color=&quot;#475e75&quot; face=&quot;Helvetica&quot; style=&quot;font-size: 11px;&quot;&gt;The main (nonhuman) interacting actors in the model are identity providers, service providers, and the IAM services supported by SAP BTP. As shown in the figure Identity providers are systems that assert user information to service provider systems, vouching for the identity of the users who require access to their services.&amp;nbsp;&lt;/font&gt;&lt;/span&gt;" placeholders="1" name="Variable" id="WXxtYBOuJOK_NInGcJ7v-34">
          <mxCell style="text;html=1;strokeColor=none;fillColor=none;align=left;verticalAlign=middle;whiteSpace=wrap;overflow=hidden;fontColor=#1D2D3E;" parent="WXxtYBOuJOK_NInGcJ7v-32" vertex="1">
            <mxGeometry y="25" width="653" height="48.25" as="geometry" />
          </mxCell>
        </UserObject>
        <mxCell id="WXxtYBOuJOK_NInGcJ7v-144" value="" style="rounded=0;whiteSpace=wrap;html=1;strokeColor=none;strokeWidth=1.5;arcSize=16;fillColor=#F5F6F7;perimeterSpacing=0;imageHeight=24;absoluteArcSize=1;points=[];connectable=0;container=0;" parent="WXxtYBOuJOK_NInGcJ7v-1" vertex="1">
          <mxGeometry x="-1150" y="-1618.75" width="526" height="517.75" as="geometry" />
        </mxCell>
        <mxCell id="_qOZEfST5oPCIHCsSwYm-0" value="&lt;h1&gt;Flow&lt;/h1&gt;&lt;ul&gt;&lt;li style=&quot;box-sizing: border-box;&quot;&gt;The authentication flow starts by an application / business user as shown in the upper left corner of the diagram. The&amp;nbsp;&lt;span style=&quot;box-sizing: border-box; font-weight: var(--base-text-weight-semibold, 600);&quot;&gt;user&lt;/span&gt;&amp;nbsp;accesses the SAP application via an&amp;nbsp;&lt;span style=&quot;box-sizing: border-box; font-weight: var(--base-text-weight-semibold, 600);&quot;&gt;Application Client (here a browser like Chrome)&lt;/span&gt;.&lt;/li&gt;&lt;li style=&quot;box-sizing: border-box; margin-top: 0.25em;&quot;&gt;The SAP Cloud or SAP On-Premises (incl. private cloud) application does not find an active session via a cookie in the browser.&lt;/li&gt;&lt;li style=&quot;box-sizing: border-box; margin-top: 0.25em;&quot;&gt;The SAP application redirects the application client to the IAS.&lt;/li&gt;&lt;li style=&quot;box-sizing: border-box; margin-top: 0.25em;&quot;&gt;The IAS asks the application client for a X.509 certificate or if no known certificate was presented it would try to get the user authenticated.&lt;/li&gt;&lt;li style=&quot;box-sizing: border-box; margin-top: 0.25em;&quot;&gt;The IAS checks the application-configuration for the calling application if any Corp.IdP forwarding is in place.&lt;ul style=&quot;box-sizing: border-box; padding-left: 2em; margin-top: 0px; margin-bottom: 0px;&quot; dir=&quot;auto&quot;&gt;&lt;li style=&quot;box-sizing: border-box;&quot;&gt;no: The IAS presents a login screen&lt;/li&gt;&lt;li style=&quot;box-sizing: border-box; margin-top: 0.25em;&quot;&gt;yes: e.g. in general for all SAP applications a redirect is enabled - IAS redirects the application client to the 3rd party Identity Provider&lt;/li&gt;&lt;/ul&gt;&lt;/li&gt;&lt;li style=&quot;box-sizing: border-box;&quot;&gt;The 3rd party Identity Provider authenticates the user.&lt;/li&gt;&lt;li style=&quot;box-sizing: border-box; margin-top: 0.25em;&quot;&gt;The 3rd party IdP redirects the application client with the authenticated user details to IAS.&lt;/li&gt;&lt;li style=&quot;box-sizing: border-box; margin-top: 0.25em;&quot;&gt;The IAS accepts the incoming token and processes it based on the app-configuration.&lt;/li&gt;&lt;li style=&quot;box-sizing: border-box;&quot;&gt;The IAS creates a new token based on the application-configuration SAML or OIDC with attributes used from the 3rd party IdP and/or from the IdDS.&lt;/li&gt;&lt;li style=&quot;box-sizing: border-box; margin-top: 0.25em;&quot;&gt;The IAS redirects the application client to the application.&lt;/li&gt;&lt;li style=&quot;box-sizing: border-box; margin-top: 0.25em;&quot;&gt;The application accepts the token from IAS and creates a new user-session. The user is logged in.&lt;/li&gt;&lt;/ul&gt;" style="text;html=1;strokeColor=none;fillColor=none;spacing=5;spacingTop=-20;whiteSpace=wrap;overflow=hidden;rounded=0;" parent="WXxtYBOuJOK_NInGcJ7v-1" vertex="1">
          <mxGeometry x="-1129" y="-1606" width="388" height="479" as="geometry" />
        </mxCell>
        <mxCell id="-8ltmUQOH7vwek7LmO93-26" value="&lt;p style=&quot;line-height: 100%; font-size: 12px;&quot;&gt;&lt;b style=&quot;font-size: 12px;&quot;&gt;&lt;font face=&quot;arial black&quot; style=&quot;font-size: 12px;&quot; color=&quot;#ffffff&quot;&gt;1&lt;/font&gt;&lt;/b&gt;&lt;/p&gt;" style="ellipse;whiteSpace=wrap;html=1;aspect=fixed;rotation=0;gradientColor=#0057D2;strokeColor=none;gradientDirection=east;fillColor=#2395FF;rounded=0;pointerEvents=0;fontFamily=Helvetica;fontSize=12;fontColor=default;spacingTop=4;spacingBottom=4;spacingLeft=4;spacingRight=4;verticalAlign=middle;container=0;" parent="WXxtYBOuJOK_NInGcJ7v-1" vertex="1">
          <mxGeometry x="-1129" y="-1559" width="22" height="22" as="geometry" />
        </mxCell>
        <mxCell id="-8ltmUQOH7vwek7LmO93-28" value="&lt;p style=&quot;line-height: 100%; font-size: 12px;&quot;&gt;&lt;font face=&quot;arial black&quot; color=&quot;#ffffff&quot; style=&quot;font-size: 12px;&quot;&gt;&lt;b style=&quot;font-size: 12px;&quot;&gt;2&lt;/b&gt;&lt;/font&gt;&lt;/p&gt;" style="ellipse;whiteSpace=wrap;html=1;aspect=fixed;rotation=0;gradientColor=#0057D2;strokeColor=none;gradientDirection=east;fillColor=#2395FF;rounded=0;pointerEvents=0;fontFamily=Helvetica;fontSize=12;fontColor=default;spacingTop=4;spacingBottom=4;spacingLeft=4;spacingRight=4;verticalAlign=middle;container=0;" parent="WXxtYBOuJOK_NInGcJ7v-1" vertex="1">
          <mxGeometry x="-1129" y="-1498" width="22" height="22" as="geometry" />
        </mxCell>
        <mxCell id="-8ltmUQOH7vwek7LmO93-30" value="&lt;p style=&quot;line-height: 100%; font-size: 12px;&quot;&gt;&lt;b style=&quot;font-size: 12px;&quot;&gt;&lt;font face=&quot;arial black&quot; style=&quot;font-size: 12px;&quot; color=&quot;#ffffff&quot;&gt;3&lt;/font&gt;&lt;/b&gt;&lt;/p&gt;" style="ellipse;whiteSpace=wrap;html=1;aspect=fixed;rotation=0;gradientColor=#0057D2;strokeColor=none;gradientDirection=east;fillColor=#2395FF;rounded=0;pointerEvents=0;fontFamily=Helvetica;fontSize=12;fontColor=default;spacingTop=4;spacingBottom=4;spacingLeft=4;spacingRight=4;verticalAlign=middle;container=0;" parent="WXxtYBOuJOK_NInGcJ7v-1" vertex="1">
          <mxGeometry x="-1129" y="-1453" width="22" height="22" as="geometry" />
        </mxCell>
        <mxCell id="-8ltmUQOH7vwek7LmO93-32" value="&lt;p style=&quot;line-height: 100%; font-size: 12px;&quot;&gt;&lt;font face=&quot;arial black&quot; color=&quot;#ffffff&quot;&gt;&lt;b&gt;4&lt;/b&gt;&lt;/font&gt;&lt;/p&gt;" style="ellipse;whiteSpace=wrap;html=1;aspect=fixed;rotation=0;gradientColor=#0057D2;strokeColor=none;gradientDirection=east;fillColor=#2395FF;rounded=0;pointerEvents=0;fontFamily=Helvetica;fontSize=12;fontColor=default;spacingTop=4;spacingBottom=4;spacingLeft=4;spacingRight=4;verticalAlign=middle;container=0;" parent="WXxtYBOuJOK_NInGcJ7v-1" vertex="1">
          <mxGeometry x="-1128" y="-1429" width="21" height="21" as="geometry" />
        </mxCell>
        <mxCell id="-8ltmUQOH7vwek7LmO93-34" value="&lt;p style=&quot;line-height: 100%; font-size: 12px;&quot;&gt;&lt;b style=&quot;font-size: 12px;&quot;&gt;&lt;font face=&quot;arial black&quot; style=&quot;font-size: 12px;&quot; color=&quot;#ffffff&quot;&gt;5&lt;/font&gt;&lt;/b&gt;&lt;/p&gt;" style="ellipse;whiteSpace=wrap;html=1;aspect=fixed;rotation=0;gradientColor=#0057D2;strokeColor=none;gradientDirection=east;fillColor=#2395FF;rounded=0;pointerEvents=0;fontFamily=Helvetica;fontSize=12;fontColor=default;spacingTop=4;spacingBottom=4;spacingLeft=4;spacingRight=4;verticalAlign=middle;container=0;" parent="WXxtYBOuJOK_NInGcJ7v-1" vertex="1">
          <mxGeometry x="-1128" y="-1388" width="22" height="22" as="geometry" />
        </mxCell>
        <mxCell id="-8ltmUQOH7vwek7LmO93-36" value="&lt;p style=&quot;line-height: 100%; font-size: 12px;&quot;&gt;&lt;b style=&quot;font-size: 12px;&quot;&gt;&lt;font face=&quot;arial black&quot; style=&quot;font-size: 12px;&quot; color=&quot;#ffffff&quot;&gt;6&lt;/font&gt;&lt;/b&gt;&lt;/p&gt;" style="ellipse;whiteSpace=wrap;html=1;aspect=fixed;rotation=0;gradientColor=#0057D2;strokeColor=none;gradientDirection=east;fillColor=#2395FF;rounded=0;pointerEvents=0;fontFamily=Helvetica;fontSize=12;fontColor=default;spacingTop=4;spacingBottom=4;spacingLeft=4;spacingRight=4;verticalAlign=middle;container=0;" parent="WXxtYBOuJOK_NInGcJ7v-1" vertex="1">
          <mxGeometry x="-1128" y="-1301" width="22" height="22" as="geometry" />
        </mxCell>
        <mxCell id="-8ltmUQOH7vwek7LmO93-47" value="&lt;p style=&quot;line-height: 100%; font-size: 12px;&quot;&gt;&lt;b style=&quot;font-size: 12px;&quot;&gt;&lt;font face=&quot;arial black&quot; style=&quot;font-size: 12px;&quot; color=&quot;#ffffff&quot;&gt;7&lt;/font&gt;&lt;/b&gt;&lt;/p&gt;" style="ellipse;whiteSpace=wrap;html=1;aspect=fixed;rotation=0;gradientColor=#0057D2;strokeColor=none;gradientDirection=east;fillColor=#2395FF;rounded=0;pointerEvents=0;fontFamily=Helvetica;fontSize=12;fontColor=default;spacingTop=4;spacingBottom=4;spacingLeft=4;spacingRight=4;verticalAlign=middle;container=0;" parent="WXxtYBOuJOK_NInGcJ7v-1" vertex="1">
          <mxGeometry x="-1128" y="-1276" width="22" height="22" as="geometry" />
        </mxCell>
        <mxCell id="C4JjbqjRyMP2yy9lvFBD-388" value="" style="group" parent="WXxtYBOuJOK_NInGcJ7v-1" vertex="1" connectable="0">
          <mxGeometry x="-2205" y="-1518" width="757.1721854304635" height="477" as="geometry" />
        </mxCell>
        <mxCell id="C4JjbqjRyMP2yy9lvFBD-389" value="" style="rounded=1;whiteSpace=wrap;html=1;strokeColor=#0070F2;fillColor=#EBF8FF;arcSize=32;absoluteArcSize=1;imageWidth=64;imageHeight=64;strokeWidth=1.5;" parent="C4JjbqjRyMP2yy9lvFBD-388" vertex="1">
          <mxGeometry x="171" width="397" height="444" as="geometry" />
        </mxCell>
        <mxCell id="C4JjbqjRyMP2yy9lvFBD-390" value="" style="rounded=1;whiteSpace=wrap;html=1;strokeColor=#0070F2;strokeWidth=1.5;arcSize=16;fillColor=#FFFFFF;perimeterSpacing=0;absoluteArcSize=1;" parent="C4JjbqjRyMP2yy9lvFBD-388" vertex="1">
          <mxGeometry x="189.54999999999995" y="49" width="357.45" height="230" as="geometry" />
        </mxCell>
        <mxCell id="C4JjbqjRyMP2yy9lvFBD-391" value="" style="shape=image;verticalLabelPosition=bottom;labelBackgroundColor=default;verticalAlign=top;aspect=fixed;imageAspect=0;image=data:image/svg+xml,PHN2ZyB4bWxuczp4bGluaz0iaHR0cDovL3d3dy53My5vcmcvMTk5OS94bGluayIgeG1sbnM9Imh0dHA6Ly93d3cudzMub3JnLzIwMDAvc3ZnIiB2aWV3Qm94PSIwIDAgMTQ0Ljc0NyAzOS44MzIiIGlkPSJhIj48ZGVmcz48bGluZWFyR3JhZGllbnQgZ3JhZGllbnRVbml0cz0idXNlclNwYWNlT25Vc2UiIHkyPSIzOS44MzIiIHgyPSI0MC4yNTgiIHkxPSIwIiB4MT0iNDAuMjU4IiBpZD0iYiI+PHN0b3Agc3RvcC1jb2xvcj0iIzAwYjhmMSIgb2Zmc2V0PSIwIi8+PHN0b3Agc3RvcC1jb2xvcj0iIzAwYjVlZiIgb2Zmc2V0PSIuMDE2Ii8+PHN0b3Agc3RvcC1jb2xvcj0iIzBkOTBkOCIgb2Zmc2V0PSIuMzA4Ii8+PHN0b3Agc3RvcC1jb2xvcj0iIzE2NzVjOCIgb2Zmc2V0PSIuNTc4Ii8+PHN0b3Agc3RvcC1jb2xvcj0iIzFjNjRiZSIgb2Zmc2V0PSIuODE3Ii8+PHN0b3Agc3RvcC1jb2xvcj0iIzFlNWZiYiIgb2Zmc2V0PSIxIi8+PC9saW5lYXJHcmFkaWVudD48L2RlZnM+PHBvbHlsaW5lIGZpbGwtcnVsZT0iZXZlbm9kZCIgZmlsbD0idXJsKCNiKSIgcG9pbnRzPSIwIDM5LjgzMiA0MC42OTIgMzkuODMyIDgwLjUxNyAwIDAgMCAwIDM5LjgzMiIvPjxwYXRoIGZpbGwtcnVsZT0iZXZlbm9kZCIgZmlsbD0iI2ZmZiIgZD0ibTQ3Ljc4Miw3LjQ4OWwtNy45MjUtLjAwNXYxOC44NDVsLTYuOTI0LTE4Ljg0NWgtNi44NjVsLTUuOTEyLDE1Ljc1OWMtLjYzLTMuOTczLTQuNzQtNS4zNDUtNy45NzQtNi4zNzQtMi4xMzUtLjY4Ni00LjQwMS0xLjY5NC00LjM4LTIuODA5LjAxNy0uOTE1LDEuMjE1LTEuNzY1LDMuNTg5LTEuNjM3LDEuNTk1LjA4NCwzLjAwMS4yMTMsNS44LDEuNTYzbDIuNzUzLTQuNzk1Yy0yLjU1NS0xLjMtNi4wODYtMi4xMjEtOC45NzgtMi4xMjRoLS4wMTdjLTMuMzc0LDAtNi4xODUsMS4wOTMtNy45MjgsMi44OTQtMS4yMTQsMS4yNTgtMS44NjksMi44NTYtMS44OTYsNC42MjMtLjA0NCwyLjQzMi44NDgsNC4xNTcsMi43MjEsNS41MzMsMS41ODMsMS4xNiwzLjYwNiwxLjkxMiw1LjM5LDIuNDY1LDIuMjAxLjY4MSwzLjk5NiwxLjI3NCwzLjk3NSwyLjUzOS0uMDE2LjQ1OS0uMTkxLjg4OC0uNTIxLDEuMjM2LS41NDguNTY2LTEuMzkxLjc3OS0yLjU1NS43OTktMi4yNDQuMDQ4LTMuOTEtLjMwMy02LjU2Mi0xLjg3bC0yLjQ0OCw0Ljg2MWMyLjY0NCwxLjUwNiw1Ljc3NiwyLjM4OCw4Ljk3MiwyLjM4OGwuNDExLS4wMDZjMi43ODItLjA1LDUuMDI2LS44NDIsNi44Mi0yLjI4Ni4xMDMtLjA4MS4xOTYtLjE2Ni4yOTEtLjI1bC0uNzk1LDIuMTIzaDcuMmwxLjIwOC0zLjY3NGMxLjI2NS40MzMsMi43MDQuNjcxLDQuMjMyLjY3MSwxLjQ4NywwLDIuODg5LS4yMjksNC4xMzEtLjYzNWwxLjE2NCwzLjYzN2gxMS43NDJ2LTcuNjA3aDIuNTYxYzYuMTg4LDAsOS44NTEtMy4xNTQsOS44NTEtOC40MzYsMC01Ljg4NS0zLjU1Ny04LjU4NS0xMS4xMzItOC41ODVabS0xOC4zMTcsMTYuMTI0Yy0uOTI1LDAtMS43OTItLjE2LTIuNTM5LS40NDNsMi41MTItNy45MjZoLjA0OGwyLjQ2OCw3Ljk0OGMtLjc0Mi4yNjMtMS41ODkuNDIxLTIuNDg4LjQyMVptMTguNzgzLTQuNTUzaC0xLjc0NnYtNi4zODZoMS43NDZjMi4zMjgsMCw0LjE4NS43NzMsNC4xODUsMy4xNTEsMCwyLjQ2MS0xLjg1NywzLjIzNi00LjE4NSwzLjIzNiIvPjxwYXRoIGZpbGw9IiMwMDJhODYiIGQ9Im04MC4yMTcsNy40MDFoMTAuMDYzYzUuNTk1LDAsOC42NzQsMS45MTcsOC42NzQsNi4xNTgsMCwyLjkwMy0xLjUxMyw1LjAxNC00LjMxMSw1LjcsMy4yOS40NTgsNS4yNzgsMi41ODYsNS4yNzgsNS44OTQsMCw1LjAxNC00LjA2NCw3LjAzNy05LjE4NCw3LjAzN2gtMTAuNTIxVjcuNDAxWm0xMy45NjksNi44MjZjMC0yLjE2NC0xLjQ5Ni0yLjk3My00LjI0LTIuOTczaC01LjA0OXY2LjI5OGg0Ljg5MWMzLjIwMiwwLDQuMzk4LTEuMTYxLDQuMzk4LTMuMzI1Wm0xLjAyMSwxMC41MjFjMC0yLjM1Ny0xLjc3Ny0zLjQ2Ni00LjgzOS0zLjQ2NmgtNS40NzF2Ny4wNTVoNS41MDZjMi44MTUsMCw0LjgwNC0uNzc0LDQuODA0LTMuNTg5WiIvPjxwYXRoIGZpbGw9IiMwMDJhODYiIGQ9Im0xMDkuMDUxLDExLjVoLTcuNTgzdi00LjA5OWgxOS44NDZ2NC4wOTloLTcuNTY1djIwLjY5aC00LjY5N1YxMS41WiIvPjxwYXRoIGZpbGw9IiMwMDJhODYiIGQ9Im0xMjUuMTQ4LDcuNDAxaDEwLjUwNGM2LjE5MiwwLDkuMDk2LDMuMTg1LDkuMDk2LDcuODk5LDAsNC4zOTgtMi44MzMsOC4xNDYtOC44NSw4LjE0NmgtNi4wN3Y4Ljc0NGgtNC42OFY3LjQwMVptMTQuOTAyLDcuOTUyYzAtMi41NTEtMS42ODktMy45MjMtNC45NDQtMy45MjNoLTUuMjc4djguMDRoNS40MTljMy4yNzIsMCw0LjgwNC0xLjU4Myw0LjgwNC00LjExN1oiLz48L3N2Zz4=;strokeWidth=1.5;" parent="C4JjbqjRyMP2yy9lvFBD-388" vertex="1">
          <mxGeometry x="189.54999999999995" y="17.000000000000114" width="67.25" height="18.55" as="geometry" />
        </mxCell>
        <mxCell id="C4JjbqjRyMP2yy9lvFBD-392" value="&lt;font face=&quot;arial&quot; style=&quot;font-size: 16px;&quot;&gt;&lt;b style=&quot;font-size: 16px;&quot;&gt;SAP Cloud Identity Services&lt;/b&gt;&lt;/font&gt;" style="text;html=1;align=left;verticalAlign=middle;resizable=0;points=[];autosize=1;strokeColor=none;fillColor=none;fontSize=12;fontColor=#1d2d3e;fontFamily=Helvetica;" parent="C4JjbqjRyMP2yy9lvFBD-388" vertex="1">
          <mxGeometry x="199.39" y="57" width="240" height="30" as="geometry" />
        </mxCell>
        <mxCell id="C4JjbqjRyMP2yy9lvFBD-393" style="edgeStyle=orthogonalEdgeStyle;rounded=0;orthogonalLoop=1;jettySize=auto;html=1;fontSize=18;strokeColor=#188918;fontFamily=Helvetica;fontColor=default;targetPerimeterSpacing=15;endSize=4;startSize=4;endArrow=blockThin;endFill=1;strokeWidth=1.5;startArrow=none;startFill=0;entryX=-0.001;entryY=0.629;entryDx=0;entryDy=0;entryPerimeter=0;" parent="C4JjbqjRyMP2yy9lvFBD-388" edge="1">
          <mxGeometry relative="1" as="geometry">
            <mxPoint x="597.847" y="393.20024999999987" as="targetPoint" />
            <mxPoint x="581" y="116" as="sourcePoint" />
            <Array as="points">
              <mxPoint x="581" y="393" />
            </Array>
          </mxGeometry>
        </mxCell>
        <mxCell id="C4JjbqjRyMP2yy9lvFBD-394" value="" style="group" parent="C4JjbqjRyMP2yy9lvFBD-388" vertex="1" connectable="0">
          <mxGeometry x="243" y="157.5" width="110" height="95.5" as="geometry" />
        </mxCell>
        <mxCell id="C4JjbqjRyMP2yy9lvFBD-395" value="" style="shape=image;verticalLabelPosition=bottom;verticalAlign=top;imageAspect=0;aspect=fixed;image=data:image/svg+xml,PHN2ZyB4bWxucz0iaHR0cDovL3d3dy53My5vcmcvMjAwMC9zdmciIGZpbGw9Im5vbmUiIHZpZXdCb3g9IjAgMCA0OSA0OSIgaGVpZ2h0PSI0OSIgd2lkdGg9IjQ5Ij4mI3hhOzxjaXJjbGUgc3Ryb2tlLXdpZHRoPSIwLjg1NzE0MyIgc3Ryb2tlPSIjRDVEQUREIiBmaWxsPSJ1cmwoI3BhaW50MF9saW5lYXJfMjYyMl8yMDQ3MSkiIHI9IjIzLjU3MTQiIGN5PSIyNC4wMzQ5IiBjeD0iMjQuNSIvPiYjeGE7PGcgY2xpcC1wYXRoPSJ1cmwoI2NsaXAwXzI2MjJfMjA0NzEpIj4mI3hhOzxwYXRoIGZpbGw9InVybCgjcGFpbnQxX3JhZGlhbF8yNjIyXzIwNDcxKSIgZD0iTTI0LjMwODggMTEuMjM3QzIwLjAyNjQgMTEuMjM3IDE2Ljk4MzcgMTQuNzIyOSAxNi40NzY4IDE4LjM2MjNDMTUuMDk5MiAxOC40NDQzIDEzLjg4MjkgMTguOTYyIDEyLjkzODEgMTkuODMxNkMxMS42NjAxIDIxLjAwNzkgMTEgMjIuNzE1NCAxMSAyNC41MTYxQzExIDI2LjE4OTYgMTEuNTA3NiAyNy43NzEzIDEyLjY0NzMgMjguOTQwOEMxMy43OTQ2IDMwLjExODEgMTUuNDIzNCAzMC43MTQ1IDE3LjM0MTMgMzAuNzE0NUgxOC4xODQxQzE4LjE5NjEgMzAuNjk2MiAxOC4yMDgyIDMwLjY3NzkgMTguMjIwNCAzMC42NTk2TDE4LjIzMjUgMzAuNjQxNUwxOC4yNDUxIDMwLjYyMzdDMTguNjIyIDMwLjA5MTYgMTkuMDY3MSAyOS42MjI1IDE5LjU3ODEgMjkuMjIwMUMxOS42MDk0IDI5LjE5NDQgMTkuNjQwOSAyOS4xNjkgMTkuNjcyNyAyOS4xNDRDMTkuMzk4MSAyOC41MDYyIDE5LjI2MjEgMjcuODA4MSAxOS4yNjIxIDI3LjA2NjRDMTkuMjYyMSAyNi4zNjI2IDE5LjM5NjggMjUuNjgwNiAxOS42NzAzIDI1LjAzNDFDMTkuOTM0NiAyNC40MDk1IDIwLjMwMzcgMjMuODUwNSAyMC43ODA5IDIzLjM3MzRDMjEuMjY4MSAyMi44ODYyIDIxLjgzMzMgMjIuNTA1MSAyMi40Njc3IDIyLjIzNjdDMjMuMTE0MiAyMS45NjMyIDIzLjc5NjIgMjEuODI4NiAyNC41IDIxLjgyODZDMjUuMjAzOCAyMS44Mjg2IDI1Ljg4NTkgMjEuOTYzMiAyNi41MzIzIDIyLjIzNjdDMjcuMTYxOCAyMi41MDMgMjcuNzIgMjIuODgyNyAyOC4xOTMzIDIzLjM3MzFDMjguNjgzOCAyMy44NDY0IDI5LjA2MzQgMjQuNDA0NyAyOS4zMjk3IDI1LjAzNDFDMjkuNjAzMiAyNS42ODA2IDI5LjczNzkgMjYuMzYyNiAyOS43Mzc5IDI3LjA2NjRDMjkuNzM3OSAyNy43NzAzIDI5LjYwMzIgMjguNDUyMyAyOS4zMjk3IDI5LjA5ODhMMjkuMzI1NCAyOS4xMDg5TDI5LjMyMSAyOS4xMTlDMjkuODY4NiAyOS41Mzc3IDMwLjM0OTEgMzAuMDQzOSAzMC43NTk4IDMwLjYzMDdDMzAuNzgxNCAzMC42NjE2IDMwLjgwMjggMzAuNjkyNSAzMC44MjM4IDMwLjcyMzZDMzQuNTU1NSAzMC42MjEzIDM3LjkxNTYgMjcuODE0IDM3LjkxNTYgMjMuMzU5QzM3LjkxNTYgMTkuMzc1IDM1LjA2ODMgMTYuMzEzNCAzMS42NDA0IDE1Ljk4OTVDMzAuMjY2MyAxMy4xNDgxIDI3LjcxNTYgMTEuMjM3IDI0LjMwODggMTEuMjM3WiIgY2xpcC1ydWxlPSJldmVub2RkIiBmaWxsLXJ1bGU9ImV2ZW5vZGQiLz4mI3hhOzxwYXRoIGZpbGw9InVybCgjcGFpbnQyX3JhZGlhbF8yNjIyXzIwNDcxKSIgZD0iTTI3LjA4NTcgMjkuODA3NkMyOC4wNTcgMzAuMTg5MiAyOC44NDYzIDMwLjgxMzcgMjkuNDUzNCAzMS42ODFDMzAuMDYwNSAzMi41NDgzIDMwLjM2NCAzMy41MjgzIDMwLjM2NCAzNC42MjExVjM2LjEwNDJDMzAuMzY0IDM2LjMxMjMgMzAuMjg2IDM2LjQ4NTggMzAuMTI5OSAzNi42MjQ1QzI5Ljk5MTEgMzYuNzYzMyAyOS44MjYzIDM2LjgzMjcgMjkuNjM1NSAzNi44MzI3SDI4LjE1MjRDMjcuOTQ0MyAzNi44MzI3IDI3Ljc2MjEgMzYuNzYzMyAyNy42MDYgMzYuNjI0NUMyNy40NjczIDM2LjQ4NTggMjcuMzk3OSAzNi4zMTIzIDI3LjM5NzkgMzYuMTA0MkMyNy4zOTc5IDM1Ljg5NiAyNy40NjczIDM1LjcyMjYgMjcuNjA2IDM1LjU4MzhDMjcuNzYyMSAzNS40Mjc3IDI3Ljk0NDMgMzUuMzQ5NiAyOC4xNTI0IDM1LjM0OTZIMjguODgxVjM0LjYyMTFDMjguODgxIDM0LjExODEgMjguNzg1NiAzMy42NDExIDI4LjU5NDcgMzMuMTkwMUMyOC40MDM5IDMyLjczOTEgMjguMTM1MSAzMi4zNDg4IDI3Ljc4ODIgMzIuMDE5MkMyNy40NTg2IDMxLjY3MjMgMjcuMDY4MyAzMS40MDM0IDI2LjYxNzMgMzEuMjEyNkMyNi4xODM3IDMxLjAyMTggMjUuNzA2NyAzMC45MjY0IDI1LjE4NjMgMzAuOTI2NEgyMy43MjkyQzIzLjIwODkgMzAuOTI2NCAyMi43MjMyIDMxLjAyMTggMjIuMjcyMiAzMS4yMTI2QzIxLjgzODYgMzEuNDAzNCAyMS40NDgzIDMxLjY3MjMgMjEuMTAxNCAzMi4wMTkyQzIwLjc3MTggMzIuMzQ4OCAyMC41MTE2IDMyLjczOTEgMjAuMzIwOCAzMy4xOTAxQzIwLjEzIDMzLjY0MTEgMjAuMDM0NiAzNC4xMTgxIDIwLjAzNDYgMzQuNjIxMVYzNS4zNDk2SDIwLjc2MzFDMjAuOTcxMyAzNS4zNDk2IDIxLjE0NDcgMzUuNDI3NyAyMS4yODM1IDM1LjU4MzhDMjEuNDIyMyAzNS43MjI2IDIxLjQ5MTYgMzUuODk2IDIxLjQ5MTYgMzYuMTA0MkMyMS40OTE2IDM2LjMxMjMgMjEuNDIyMyAzNi40ODU4IDIxLjI4MzUgMzYuNjI0NUMyMS4xNDQ3IDM2Ljc2MzMgMjAuOTcxMyAzNi44MzI3IDIwLjc2MzEgMzYuODMyN0gxOS4yOEMxOS4wODkyIDM2LjgzMjcgMTguOTE1OCAzNi43NjMzIDE4Ljc1OTcgMzYuNjI0NUMxOC42MjA5IDM2LjQ4NTggMTguNTUxNSAzNi4zMTIzIDE4LjU1MTUgMzYuMTA0MlYzNC42MjExQzE4LjU1MTUgMzQuMDY2IDE4LjYyOTYgMzMuNTQ1NyAxOC43ODU3IDMzLjA2QzE4Ljk1OTEgMzIuNTU2OSAxOS4xODQ2IDMyLjA5NzMgMTkuNDYyMiAzMS42ODFDMTkuNzU3MSAzMS4yNjQ3IDIwLjEwNCAzMC45MDA0IDIwLjUwMjkgMzAuNTg4MkMyMC45MDE5IDMwLjI1ODYgMjEuMzQ0MiAyOS45OTg0IDIxLjgyOTkgMjkuODA3NkMyMS4xMTg3IDI5LjEzMTEgMjAuNzYzMSAyOC4yNzI1IDIwLjc2MzEgMjcuMjMxOEMyMC43NjMxIDI2LjcyODcgMjAuODU4NSAyNi4yNTE3IDIxLjA0OTMgMjUuODAwN0MyMS4yNDAxIDI1LjM0OTcgMjEuNTAwMyAyNC45NTk0IDIxLjgyOTkgMjQuNjI5OUMyMi4xNzY4IDI0LjI4MyAyMi41NzU4IDI0LjAxNDEgMjMuMDI2NyAyMy44MjMzQzIzLjQ3NzcgMjMuNjMyNSAyMy45NTQ3IDIzLjUzNzEgMjQuNDU3OCAyMy41MzcxQzI0Ljk2MDggMjMuNTM3MSAyNS40Mzc4IDIzLjYzMjUgMjUuODg4OCAyMy44MjMzQzI2LjMzOTggMjQuMDE0MSAyNi43MzAxIDI0LjI4MyAyNy4wNTk2IDI0LjYyOTlDMjcuNDA2NiAyNC45NTk0IDI3LjY3NTQgMjUuMzQ5NyAyNy44NjYyIDI1LjgwMDdDMjguMDU3IDI2LjI1MTcgMjguMTUyNCAyNi43Mjg3IDI4LjE1MjQgMjcuMjMxOEMyOC4xNTI0IDI3LjczNDggMjguMDU3IDI4LjIxMTggMjcuODY2MiAyOC42NjI4QzI3LjY3NTQgMjkuMDk2NCAyNy40MTUyIDI5LjQ3OCAyNy4wODU3IDI5LjgwNzZaTTI0LjQ1NzggMjUuMDIwMkMyMy44NTA3IDI1LjAyMDIgMjMuMzMwMyAyNS4yMzcgMjIuODk2NiAyNS42NzA2QzIyLjQ2MyAyNi4xMDQzIDIyLjI0NjIgMjYuNjI0NyAyMi4yNDYyIDI3LjIzMThDMjIuMjQ2MiAyNy44Mzg5IDIyLjQ2MyAyOC4zNTkyIDIyLjg5NjYgMjguNzkyOUMyMy4zMzAzIDI5LjIyNjUgMjMuODUwNyAyOS40NDM0IDI0LjQ1NzggMjkuNDQzNEMyNS4wNjQ5IDI5LjQ0MzQgMjUuNTg1MiAyOS4yMjY1IDI2LjAxODkgMjguNzkyOUMyNi40NTI1IDI4LjM1OTIgMjYuNjY5NCAyNy44Mzg5IDI2LjY2OTQgMjcuMjMxOEMyNi42Njk0IDI2LjYyNDcgMjYuNDUyNSAyNi4xMDQzIDI2LjAxODkgMjUuNjcwNkMyNS41ODUyIDI1LjIzNyAyNS4wNjQ5IDI1LjAyMDIgMjQuNDU3OCAyNS4wMjAyWiIvPiYjeGE7PC9nPiYjeGE7PGRlZnM+JiN4YTs8bGluZWFyR3JhZGllbnQgZ3JhZGllbnRVbml0cz0idXNlclNwYWNlT25Vc2UiIHkyPSI0NC4yNzkyIiB4Mj0iNDEuNTY0NSIgeTE9IjYuODQ3NzUiIHgxPSI0Ljg1Mjg3IiBpZD0icGFpbnQwX2xpbmVhcl8yNjIyXzIwNDcxIj4mI3hhOzxzdG9wIHN0b3AtY29sb3I9IndoaXRlIi8+JiN4YTs8c3RvcCBzdG9wLWNvbG9yPSIjRUFFQ0VFIiBvZmZzZXQ9IjEiLz4mI3hhOzwvbGluZWFyR3JhZGllbnQ+JiN4YTs8cmFkaWFsR3JhZGllbnQgZ3JhZGllbnRUcmFuc2Zvcm09InRyYW5zbGF0ZSgxNS4xNzM5IDE0Ljk5NTIpIHJvdGF0ZSg0My44Nzc5KSBzY2FsZSgyNS44NTI0IDQ4LjgxMTcpIiBncmFkaWVudFVuaXRzPSJ1c2VyU3BhY2VPblVzZSIgcj0iMSIgY3k9IjAiIGN4PSIwIiBpZD0icGFpbnQxX3JhZGlhbF8yNjIyXzIwNDcxIj4mI3hhOzxzdG9wIHN0b3AtY29sb3I9IiMwMTk1RkYiLz4mI3hhOzxzdG9wIHN0b3AtY29sb3I9IiMxMTQ3RTkiIG9mZnNldD0iMSIvPiYjeGE7PC9yYWRpYWxHcmFkaWVudD4mI3hhOzxyYWRpYWxHcmFkaWVudCBncmFkaWVudFRyYW5zZm9ybT0idHJhbnNsYXRlKDE1LjE2NzggMTUuMDg3NSkgcm90YXRlKDQzLjU2MDEpIHNjYWxlKDI1Ljg3MjcgMjMuNTQ3KSIgZ3JhZGllbnRVbml0cz0idXNlclNwYWNlT25Vc2UiIHI9IjEiIGN5PSIwIiBjeD0iMCIgaWQ9InBhaW50Ml9yYWRpYWxfMjYyMl8yMDQ3MSI+JiN4YTs8c3RvcCBzdG9wLWNvbG9yPSIjMTM0OEZGIi8+JiN4YTs8c3RvcCBzdG9wLWNvbG9yPSIjMDYyMzhEIiBvZmZzZXQ9IjEiLz4mI3hhOzwvcmFkaWFsR3JhZGllbnQ+JiN4YTs8Y2xpcFBhdGggaWQ9ImNsaXAwXzI2MjJfMjA0NzEiPiYjeGE7PHJlY3QgdHJhbnNmb3JtPSJ0cmFuc2xhdGUoMTEgMTAuNTM0OSkiIGZpbGw9IndoaXRlIiBoZWlnaHQ9IjI3IiB3aWR0aD0iMjciLz4mI3hhOzwvY2xpcFBhdGg+JiN4YTs8L2RlZnM+JiN4YTs8L3N2Zz4=;points=[[0,0,0,0,0],[0,0.25,0,0,0],[0,0.5,0,0,0],[0,0.75,0,0,0],[0.25,0,0,0,0],[0.5,0,0,0,0],[0.75,0,0,0,0],[1,0,0,0,0],[1,0.25,0,0,0],[1,0.5,0,0,0],[1,0.75,0,0,0]];" parent="C4JjbqjRyMP2yy9lvFBD-394" vertex="1">
          <mxGeometry x="30.5" width="48" height="48" as="geometry" />
        </mxCell>
        <mxCell id="C4JjbqjRyMP2yy9lvFBD-396" value="&lt;font color=&quot;#1d2d3e&quot; size=&quot;1&quot; face=&quot;arial&quot; style=&quot;&quot;&gt;&lt;span style=&quot;font-size: 12px;&quot;&gt;Identity Authentication&lt;br&gt;&lt;/span&gt;&lt;/font&gt;" style="text;html=1;align=center;verticalAlign=top;resizable=1;points=[[0,0.5,0,0,0],[0.21,1,0,0,0],[0.5,1,0,0,0],[0.85,1,0,0,0],[1,0.5,0,0,0]];autosize=0;strokeColor=none;fillColor=none;fontSize=12;fontColor=default;fontFamily=Helvetica;fixedWidth=1;imageWidth=24;whiteSpace=wrap;labelBackgroundColor=none;" parent="C4JjbqjRyMP2yy9lvFBD-394" vertex="1">
          <mxGeometry y="49.5" width="110" height="46" as="geometry" />
        </mxCell>
        <mxCell id="C4JjbqjRyMP2yy9lvFBD-397" value="" style="group" parent="C4JjbqjRyMP2yy9lvFBD-388" vertex="1" connectable="0">
          <mxGeometry x="372.9999999999999" y="157.75" width="110" height="95" as="geometry" />
        </mxCell>
        <mxCell id="C4JjbqjRyMP2yy9lvFBD-398" value="" style="shape=image;verticalLabelPosition=bottom;verticalAlign=top;imageAspect=0;aspect=fixed;image=data:image/svg+xml,PHN2ZyB4bWxucz0iaHR0cDovL3d3dy53My5vcmcvMjAwMC9zdmciIGZpbGw9Im5vbmUiIHZpZXdCb3g9IjAgMCA0OSA0OSIgaGVpZ2h0PSI0OSIgd2lkdGg9IjQ5Ij4mI3hhOzxjaXJjbGUgc3Ryb2tlLXdpZHRoPSIwLjg1NzE0MyIgc3Ryb2tlPSIjRDVEQUREIiBmaWxsPSJ1cmwoI3BhaW50MF9saW5lYXJfMjYyMl8yMDQ3NSkiIHI9IjIzLjU3MTQiIGN5PSIyNC4wMzQ5IiBjeD0iMjQuNSIvPiYjeGE7PHBhdGggZmlsbD0idXJsKCNwYWludDFfcmFkaWFsXzI2MjJfMjA0NzUpIiBkPSJNMjQuMzkzMSAxMi4yMzcxQzIwLjExMDcgMTIuMjM3MSAxNy4wNjgxIDE1LjcyMzEgMTYuNTYxMSAxOS4zNjI1QzE1LjE4MzYgMTkuNDQ0NCAxMy45NjcyIDE5Ljk2MjEgMTMuMDIyNSAyMC44MzE3QzExLjc0NDUgMjIuMDA4MSAxMS4wODQ0IDIzLjcxNTYgMTEuMDg0NCAyNS41MTYzQzExLjA4NDQgMjcuMTg5NyAxMS41OTIgMjguNzcxNSAxMi43MzE2IDI5Ljk0MDlDMTMuNTg2MSAzMC44MTc4IDE0LjcwNzcgMzEuMzcyNCAxNi4wMTcgMzEuNTk4NEMxNi4xMzc2IDMxLjM1MzUgMTYuMjczNSAzMS4xMTY4IDE2LjQyNTIgMzAuODg5MkwxNi40NDEgMzAuODY1NUwxNi40NTQ4IDMwLjg0NjFDMTYuNzA2OSAzMC40OTAxIDE2Ljk5NDggMzAuMTY2IDE3LjMxNjkgMjkuODc2MUMxNy4xODMxIDI5LjQzMTcgMTcuMTE4IDI4Ljk2NDUgMTcuMTE4IDI4LjQ4MzVDMTcuMTE4IDI3Ljg1NDkgMTcuMjM4NiAyNy4yNDEzIDE3LjQ4NDkgMjYuNjU5MkMxNy43MiAyNi4xMDMzIDE4LjA1MTMgMjUuNjAwMSAxOC40ODI0IDI1LjE2OTFDMTguOTE4IDI0LjczMzQgMTkuNDI1IDI0LjM5MTYgMTkuOTkyNiAyNC4xNTE1QzIwLjU3NDcgMjMuOTA1MiAyMS4xODgyIDIzLjc4NDYgMjEuODE2OCAyMy43ODQ2QzIyLjA3NTkgMjMuNzg0NiAyMi4zMzI0IDIzLjgwNTEgMjIuNTg1MyAyMy44NDY0QzIyLjkwNjUgMjMuNjE3OSAyMy4yNTIyIDIzLjQyNTEgMjMuNjIwNCAyMy4yNjkzQzI0LjI4NTEgMjIuOTg4MSAyNC45ODYzIDIyLjg0OTcgMjUuNzA4OSAyMi44NDk3QzI2LjQzMTYgMjIuODQ5NyAyNy4xMzI3IDIyLjk4ODEgMjcuNzk3NSAyMy4yNjkzQzI4LjQ0MzYgMjMuNTQyNyAyOS4wMTc2IDIzLjkzMjYgMjkuNTA0MyAyNC40MzY1QzMwLjAwODIgMjQuOTIzMiAzMC4zOTgxIDI1LjQ5NzIgMzAuNjcxNSAyNi4xNDMzQzMwLjk1MjcgMjYuODA4MSAzMS4wOTExIDI3LjUwOTMgMzEuMDkxMSAyOC4yMzE5QzMxLjA5MTEgMjguOTI1MiAzMC45NjM3IDI5LjU5ODggMzAuNzA1IDMwLjIzOTVDMzEuMTk2OSAzMC42Mjg4IDMxLjYzNDYgMzEuMDg3NyAzMi4wMTUyIDMxLjYxMjdDMzUuMjc5MiAzMS4wNDI2IDM3Ljk5OTkgMjguMzY4IDM3Ljk5OTkgMjQuMzU5MUMzNy45OTk5IDIwLjM3NTEgMzUuMTUyNiAxNy4zMTM1IDMxLjcyNDcgMTYuOTg5N0MzMC4zNTA3IDE0LjE0ODMgMjcuOCAxMi4yMzcxIDI0LjM5MzEgMTIuMjM3MVoiIGNsaXAtcnVsZT0iZXZlbm9kZCIgZmlsbC1ydWxlPSJldmVub2RkIi8+JiN4YTs8cGF0aCBmaWxsPSJ1cmwoI3BhaW50Ml9yYWRpYWxfMjYyMl8yMDQ3NSkiIGQ9Ik0yOC4zMzY4IDMwLjgwNzhDMjkuMzA4MiAzMS4xODk0IDMwLjA5NzQgMzEuODEzOCAzMC43MDQ1IDMyLjY4MTFDMzEuMzExNiAzMy41NDg0IDMxLjYxNTIgMzQuNTI4NSAzMS42MTUyIDM1LjYyMTNWMzcuMTA0NEMzMS42MTUyIDM3LjMxMjUgMzEuNTM3MSAzNy40ODYgMzEuMzgxIDM3LjYyNDdDMzEuMjQyMiAzNy43NjM1IDMxLjA3NzQgMzcuODMyOSAzMC44ODY2IDM3LjgzMjlIMjkuNDAzNkMyOS4xOTU0IDM3LjgzMjkgMjkuMDEzMyAzNy43NjM1IDI4Ljg1NzIgMzcuNjI0N0MyOC43MTg0IDM3LjQ4NiAyOC42NDkgMzcuMzEyNSAyOC42NDkgMzcuMTA0NEMyOC42NDkgMzYuODk2MiAyOC43MTg0IDM2LjcyMjcgMjguODU3MiAzNi41ODRDMjkuMDEzMyAzNi40Mjc5IDI5LjE5NTQgMzYuMzQ5OCAyOS40MDM2IDM2LjM0OThIMzAuMTMyMVYzNS42MjEzQzMwLjEzMjEgMzUuMTE4MiAzMC4wMzY3IDM0LjY0MTIgMjkuODQ1OSAzNC4xOTAyQzI5LjY1NTEgMzMuNzM5MiAyOS4zODYyIDMzLjM0OSAyOS4wMzkzIDMzLjAxOTRDMjguNzA5NyAzMi42NzI1IDI4LjMxOTUgMzIuNDAzNiAyNy44Njg1IDMyLjIxMjhDMjcuNDM0OCAzMi4wMjIgMjYuOTU3OCAzMS45MjY2IDI2LjQzNzUgMzEuOTI2NkgyNC45ODA0QzI0LjQ2IDMxLjkyNjYgMjMuOTc0NCAzMi4wMjIgMjMuNTIzNCAzMi4yMTI4QzIzLjA4OTcgMzIuNDAzNiAyMi42OTk0IDMyLjY3MjUgMjIuMzUyNSAzMy4wMTk0QzIyLjAyMyAzMy4zNDkgMjEuNzYyOCAzMy43MzkyIDIxLjU3MiAzNC4xOTAyQzIxLjM4MTIgMzQuNjQxMiAyMS4yODU4IDM1LjExODIgMjEuMjg1OCAzNS42MjEzVjM2LjM0OThIMjIuMDE0M0MyMi4yMjI0IDM2LjM0OTggMjIuMzk1OSAzNi40Mjc5IDIyLjUzNDcgMzYuNTg0QzIyLjY3MzQgMzYuNzIyNyAyMi43NDI4IDM2Ljg5NjIgMjIuNzQyOCAzNy4xMDQ0QzIyLjc0MjggMzcuMzEyNSAyMi42NzM0IDM3LjQ4NiAyMi41MzQ3IDM3LjYyNDdDMjIuMzk1OSAzNy43NjM1IDIyLjIyMjQgMzcuODMyOSAyMi4wMTQzIDM3LjgzMjlIMjAuNTMxMkMyMC4zNDA0IDM3LjgzMjkgMjAuMTY3IDM3Ljc2MzUgMjAuMDEwOSAzNy42MjQ3QzE5Ljg3MjEgMzcuNDg2IDE5LjgwMjcgMzcuMzEyNSAxOS44MDI3IDM3LjEwNDRMMTkuODAyNyAzNi4wNTAySDE3LjgyMzRDMTcuNjMyOCAzNi4wNTAyIDE3LjQ2MTYgMzUuOTc5NSAxNy4zMTQ2IDM1Ljg0ODhMMTcuMzA3NSAzNS44NDI1QzE3LjE2ODEgMzUuNzAzMSAxNy4wOTk4IDM1LjUyNzEgMTcuMDk5OCAzNS4zMjY1VjM0LjE4MjdDMTcuMDk5OCAzMy43MzkyIDE3LjE2MjEgMzMuMzIxIDE3LjI4ODEgMzIuOTI5MUwxNy4yODkyIDMyLjkyNTlDMTcuNDI3MiAzMi41MjU2IDE3LjYwNzEgMzIuMTU4NiAxNy44MjkzIDMxLjgyNTNMMTcuODMxOCAzMS44MjE1QzE4LjA2NzggMzEuNDg4MyAxOC4zNDU4IDMxLjE5NjQgMTguNjY1MiAzMC45NDYxQzE4LjkyNDIgMzAuNzMyNCAxOS4yMDU5IDMwLjU1NSAxOS41MTAxIDMwLjQxNEMxOS4wMzk4IDI5Ljg4ODUgMTguODA1NSAyOS4yNDE5IDE4LjgwNTUgMjguNDgzNUMxOC44MDU1IDI4LjA3NDUgMTguODgzMiAyNy42ODUxIDE5LjAzOSAyNy4zMTY3QzE5LjE5MzkgMjYuOTUwNyAxOS40MDYgMjYuNjMyIDE5LjY3NTYgMjYuMzYyM0MxOS45NTc5IDI2LjA4MDEgMjAuMjgzIDI1Ljg2MDkgMjAuNjUwMSAyNS43MDU2QzIxLjAxODQgMjUuNTQ5OCAyMS40MDc4IDI1LjQ3MjEgMjEuODE2OCAyNS40NzIxQzIyLjIyNTkgMjUuNDcyMSAyMi42MTUyIDI1LjU0OTggMjIuOTgzNiAyNS43MDU2TDIzLjAwMDggMjUuNzEzQzIzLjAyNzEgMjUuNjg0OSAyMy4wNTM4IDI1LjY1NzMgMjMuMDgxIDI1LjYzQzIzLjQyOCAyNS4yODMxIDIzLjgyNjkgMjUuMDE0MiAyNC4yNzc5IDI0LjgyMzRDMjQuNzI4OSAyNC42MzI2IDI1LjIwNTkgMjQuNTM3MiAyNS43MDg5IDI0LjUzNzJDMjYuMjEyIDI0LjUzNzIgMjYuNjg5IDI0LjYzMjYgMjcuMTQgMjQuODIzNEMyNy41OTA5IDI1LjAxNDIgMjcuOTgxMiAyNS4yODMxIDI4LjMxMDggMjUuNjNDMjguNjU3NyAyNS45NTk2IDI4LjkyNjYgMjYuMzQ5OSAyOS4xMTc0IDI2LjgwMDlDMjkuMzA4MiAyNy4yNTE5IDI5LjQwMzYgMjcuNzI4OSAyOS40MDM2IDI4LjIzMTlDMjkuNDAzNiAyOC43MzQ5IDI5LjMwODIgMjkuMjEyIDI5LjExNzQgMjkuNjYzQzI4LjkyNjYgMzAuMDk2NiAyOC42NjY0IDMwLjQ3ODIgMjguMzM2OCAzMC44MDc4Wk0yMC4wMzY5IDM0LjA2MDFDMTkuOTgyMiAzNC4yMzAxIDE5LjkzNzIgMzQuNDA0MyAxOS45MDE3IDM0LjU4MjdIMTguNTY3MlYzNC4xODI3QzE4LjU2NzIgMzMuODE1NyAxOC42MzY3IDMzLjQ2OTMgMTguNzc1MiAzMy4xNDJDMTguOTE0NiAzMi44MTI0IDE5LjEwMzkgMzIuNTI5IDE5LjM0MjYgMzIuMjkwM0MxOS41OTYyIDMyLjAzNjcgMTkuODgwMyAzMS44NDEyIDIwLjE5NTMgMzEuNzAyNEMyMC41MjE2IDMxLjU2NDUgMjAuODc0MyAzMS40OTQ5IDIxLjI1NDkgMzEuNDk0OUgyMS44NzA4QzIxLjgzMTUgMzEuNTI1NCAyMS43OTI2IDMxLjU1NjYgMjEuNzU0MSAzMS41ODg0QzIxLjM1NTEgMzEuOTAwNiAyMS4wMDgyIDMyLjI2NDggMjAuNzEzNCAzMi42ODExQzIwLjQzNTggMzMuMDk3NCAyMC4yMTAzIDMzLjU1NzEgMjAuMDM2OSAzNC4wNjAxWk0yNS43MDg5IDI2LjAyMDNDMjUuMTAxOCAyNi4wMjAzIDI0LjU4MTUgMjYuMjM3MSAyNC4xNDc4IDI2LjY3MDhDMjMuNzE0MiAyNy4xMDQ0IDIzLjQ5NzMgMjcuNjI0OCAyMy40OTczIDI4LjIzMTlDMjMuNDk3MyAyOC44MzkgMjMuNzE0MiAyOS4zNTk0IDI0LjE0NzggMjkuNzkzQzI0LjU4MTUgMzAuMjI2NyAyNS4xMDE4IDMwLjQ0MzUgMjUuNzA4OSAzMC40NDM1QzI2LjMxNiAzMC40NDM1IDI2LjgzNjQgMzAuMjI2NyAyNy4yNyAyOS43OTNDMjcuNzAzNyAyOS4zNTk0IDI3LjkyMDUgMjguODM5IDI3LjkyMDUgMjguMjMxOUMyNy45MjA1IDI3LjYyNDggMjcuNzAzNyAyNy4xMDQ0IDI3LjI3IDI2LjY3MDhDMjYuODM2NCAyNi4yMzcxIDI2LjMxNiAyNi4wMjAzIDI1LjcwODkgMjYuMDIwM1pNMjIuMDE0MyAyOC4yMzE5QzIyLjAxNDMgMjguODU5NiAyMi4xNDM2IDI5LjQyMTEgMjIuNDAyMyAyOS45MTYzQzIyLjIyMjMgMjkuOTkwNiAyMi4wMjc1IDMwLjAyNzQgMjEuODE2OCAzMC4wMjc0QzIxLjM5MiAzMC4wMjc0IDIxLjAzMTcgMjkuODc3NiAyMC43MjcyIDI5LjU3MzFDMjAuNDIyOCAyOS4yNjg3IDIwLjI3MjkgMjguOTA4MyAyMC4yNzI5IDI4LjQ4MzVDMjAuMjcyOSAyOC4wNTg3IDIwLjQyMjggMjcuNjk4MyAyMC43MjcyIDI3LjM5MzlDMjEuMDMxNyAyNy4wODk0IDIxLjM5MiAyNi45Mzk2IDIxLjgxNjggMjYuOTM5NkMyMS45NjA1IDI2LjkzOTYgMjIuMDk2OSAyNi45NTY3IDIyLjIyNjIgMjYuOTkxMkMyMi4wODQ5IDI3LjM4NTUgMjIuMDE0MyAyNy43OTkxIDIyLjAxNDMgMjguMjMxOVoiIGNsaXAtcnVsZT0iZXZlbm9kZCIgZmlsbC1ydWxlPSJldmVub2RkIi8+JiN4YTs8ZGVmcz4mI3hhOzxsaW5lYXJHcmFkaWVudCBncmFkaWVudFVuaXRzPSJ1c2VyU3BhY2VPblVzZSIgeTI9IjQ0LjI3OTIiIHgyPSI0MS41NjQ1IiB5MT0iNi44NDc3NSIgeDE9IjQuODUyODciIGlkPSJwYWludDBfbGluZWFyXzI2MjJfMjA0NzUiPiYjeGE7PHN0b3Agc3RvcC1jb2xvcj0id2hpdGUiLz4mI3hhOzxzdG9wIHN0b3AtY29sb3I9IiNFQUVDRUUiIG9mZnNldD0iMSIvPiYjeGE7PC9saW5lYXJHcmFkaWVudD4mI3hhOzxyYWRpYWxHcmFkaWVudCBncmFkaWVudFRyYW5zZm9ybT0idHJhbnNsYXRlKDE1LjI1ODMgMTUuOTk1NCkgcm90YXRlKDQzLjg3NzkpIHNjYWxlKDI1Ljg1MjQgNDguODExNykiIGdyYWRpZW50VW5pdHM9InVzZXJTcGFjZU9uVXNlIiByPSIxIiBjeT0iMCIgY3g9IjAiIGlkPSJwYWludDFfcmFkaWFsXzI2MjJfMjA0NzUiPiYjeGE7PHN0b3Agc3RvcC1jb2xvcj0iIzAxOTVGRiIvPiYjeGE7PHN0b3Agc3RvcC1jb2xvcj0iIzExNDdFOSIgb2Zmc2V0PSIxIi8+JiN4YTs8L3JhZGlhbEdyYWRpZW50PiYjeGE7PHJhZGlhbEdyYWRpZW50IGdyYWRpZW50VHJhbnNmb3JtPSJ0cmFuc2xhdGUoMTUuMjUyMiAxNi4wODc2KSByb3RhdGUoNDMuNTYwMikgc2NhbGUoMjUuODcyNyAyMy41NDcxKSIgZ3JhZGllbnRVbml0cz0idXNlclNwYWNlT25Vc2UiIHI9IjEiIGN5PSIwIiBjeD0iMCIgaWQ9InBhaW50Ml9yYWRpYWxfMjYyMl8yMDQ3NSI+JiN4YTs8c3RvcCBzdG9wLWNvbG9yPSIjMTM0OEZGIi8+JiN4YTs8c3RvcCBzdG9wLWNvbG9yPSIjMDYyMzhEIiBvZmZzZXQ9IjEiLz4mI3hhOzwvcmFkaWFsR3JhZGllbnQ+JiN4YTs8L2RlZnM+JiN4YTs8L3N2Zz4=;points=[[0,0,0,0,0],[0,0.25,0,0,0],[0,0.5,0,0,0],[0,0.75,0,0,0],[0.25,0,0,0,0],[0.5,0,0,0,0],[0.75,0,0,0,0],[1,0,0,0,0],[1,0.25,0,0,0],[1,0.5,0,0,0],[1,0.75,0,0,0]];" parent="C4JjbqjRyMP2yy9lvFBD-397" vertex="1">
          <mxGeometry x="59" y="-0.25" width="49" height="49" as="geometry" />
        </mxCell>
        <mxCell id="C4JjbqjRyMP2yy9lvFBD-399" value="&lt;font color=&quot;#1d2d3e&quot; size=&quot;1&quot; face=&quot;arial&quot; style=&quot;&quot;&gt;&lt;span style=&quot;font-size: 12px;&quot;&gt;Identity Directory&lt;br&gt;&lt;/span&gt;&lt;/font&gt;" style="text;html=1;align=center;verticalAlign=top;resizable=1;points=[[0,0.5,0,0,0],[0.21,1,0,0,0],[0.5,1,0,0,0],[0.85,1,0,0,0],[1,0.5,0,0,0]];autosize=0;strokeColor=none;fillColor=none;fontSize=12;fontColor=default;fontFamily=Helvetica;fixedWidth=1;imageWidth=24;whiteSpace=wrap;labelBackgroundColor=none;" parent="C4JjbqjRyMP2yy9lvFBD-397" vertex="1">
          <mxGeometry x="29" y="48.75" width="110" height="46" as="geometry" />
        </mxCell>
        <mxCell id="C4JjbqjRyMP2yy9lvFBD-400" value="" style="edgeStyle=orthogonalEdgeStyle;rounded=0;orthogonalLoop=1;jettySize=auto;html=1;endArrow=blockThin;endFill=1;strokeColor=#475e74;endSize=4;startSize=4;strokeWidth=1.5;startArrow=blockThin;startFill=1;exitX=0.976;exitY=0.503;exitDx=0;exitDy=0;exitPerimeter=0;entryX=-0.015;entryY=0.49;entryDx=0;entryDy=0;entryPerimeter=0;" parent="C4JjbqjRyMP2yy9lvFBD-388" source="C4JjbqjRyMP2yy9lvFBD-395" target="C4JjbqjRyMP2yy9lvFBD-398" edge="1">
          <mxGeometry relative="1" as="geometry">
            <mxPoint x="320.84000000000003" y="136.73000000000002" as="targetPoint" />
            <mxPoint x="176.6339999999999" y="227.99400000000014" as="sourcePoint" />
          </mxGeometry>
        </mxCell>
        <mxCell id="C4JjbqjRyMP2yy9lvFBD-401" style="edgeStyle=orthogonalEdgeStyle;rounded=0;orthogonalLoop=1;jettySize=auto;html=1;fontSize=18;strokeColor=#188918;fontFamily=Helvetica;fontColor=default;targetPerimeterSpacing=15;endSize=4;startSize=4;endArrow=blockThin;endFill=1;strokeWidth=1.5;startArrow=none;startFill=0;entryX=1.001;entryY=0.726;entryDx=0;entryDy=0;entryPerimeter=0;" parent="C4JjbqjRyMP2yy9lvFBD-388" target="C4JjbqjRyMP2yy9lvFBD-433" edge="1">
          <mxGeometry relative="1" as="geometry">
            <mxPoint x="549.1500000000001" y="393.3600000000001" as="targetPoint" />
            <mxPoint x="581" y="116" as="sourcePoint" />
            <Array as="points">
              <mxPoint x="581" y="393" />
            </Array>
          </mxGeometry>
        </mxCell>
        <mxCell id="C4JjbqjRyMP2yy9lvFBD-402" value="" style="edgeStyle=orthogonalEdgeStyle;rounded=0;orthogonalLoop=1;jettySize=auto;html=1;endArrow=none;endFill=0;strokeColor=#475e74;endSize=4;startSize=4;strokeWidth=1.5;entryX=0.386;entryY=0.001;entryDx=0;entryDy=0;startArrow=none;startFill=0;entryPerimeter=0;" parent="C4JjbqjRyMP2yy9lvFBD-388" target="C4JjbqjRyMP2yy9lvFBD-403" edge="1">
          <mxGeometry relative="1" as="geometry">
            <mxPoint x="271.54999999999995" y="179" as="targetPoint" />
            <mxPoint x="255" y="281" as="sourcePoint" />
          </mxGeometry>
        </mxCell>
        <mxCell id="C4JjbqjRyMP2yy9lvFBD-403" value="" style="rounded=1;whiteSpace=wrap;html=1;strokeColor=#0070F2;strokeWidth=1.5;arcSize=16;fillColor=#FFFFFF;perimeterSpacing=0;absoluteArcSize=1;" parent="C4JjbqjRyMP2yy9lvFBD-388" vertex="1">
          <mxGeometry x="189.54999999999995" y="306" width="170.00000000000003" height="120" as="geometry" />
        </mxCell>
        <mxCell id="C4JjbqjRyMP2yy9lvFBD-404" value="&lt;font style=&quot;font-size: 12px;&quot; color=&quot;#1d2d3e&quot;&gt;SAP Secure Login Service for SAP GUI&lt;/font&gt;" style="text;whiteSpace=wrap;html=1;align=center;" parent="C4JjbqjRyMP2yy9lvFBD-388" vertex="1">
          <mxGeometry x="199.39149659863938" y="369.444936086529" width="150.3979591836735" height="45.55555555555556" as="geometry" />
        </mxCell>
        <mxCell id="C4JjbqjRyMP2yy9lvFBD-405" value="" style="shape=image;verticalLabelPosition=bottom;verticalAlign=top;imageAspect=0;aspect=fixed;image=data:image/svg+xml,PHN2ZyB4bWxucz0iaHR0cDovL3d3dy53My5vcmcvMjAwMC9zdmciIGZpbGw9Im5vbmUiIHZpZXdCb3g9IjAgMCA0OSA0OSIgaGVpZ2h0PSI0OSIgd2lkdGg9IjQ5Ij4mI3hhOzxnIGNsaXAtcGF0aD0idXJsKCNjbGlwMF8yNjIyXzM5NjcpIj4mI3hhOzxjaXJjbGUgc3Ryb2tlLXdpZHRoPSIwLjg1NzE0MyIgc3Ryb2tlPSIjRDVEQUREIiBmaWxsPSJ1cmwoI3BhaW50MF9saW5lYXJfMjYyMl8zOTY3KSIgcj0iMjMuNTcxNCIgY3k9IjI0LjAzNDkiIGN4PSIyNC41Ii8+JiN4YTs8ZyBjbGlwLXBhdGg9InVybCgjY2xpcDFfMjYyMl8zOTY3KSI+JiN4YTs8cGF0aCBmaWxsPSJ1cmwoI3BhaW50MV9yYWRpYWxfMjYyMl8zOTY3KSIgZD0iTTIyLjI0MjkgMzcuNDA4NUMyMS45MTMzIDM3LjMwNDcgMjEuNjAwMyAzNy4xMzQyIDIxLjMwNCAzNi44OTcyQzIwLjgxMTggMzYuNTEwNCAyMC41MTMgMzYuMDAwNyAyMC40MDc1IDM1LjM2NzlMMjAuMDM4NCAzMy42Mjc2TDE3Ljc3MDggMzIuMjU2NUwxNi4xODg4IDMyLjk0MjFDMTUuODM3MiAzMy4wNDc1IDE1LjUwMzIgMzMuMTAwMyAxNS4xODY4IDMzLjEwMDNDMTQuNjk0NiAzMy4xMDAzIDE0LjIyIDMyLjk3NzIgMTMuNzYzIDMyLjczMTFDMTMuMzQxMSAzMi40ODUgMTMuMDA3MSAzMi4xMTU5IDEyLjc2MSAzMS42MjM3TDExLjc1OTEgMjkuNjcyNUMxMS41ODMzIDI5LjI1MDcgMTEuNDk1NCAyOC44NjQgMTEuNDk1NCAyOC41MTI0QzExLjQ5NTQgMjcuNTk4MyAxMS44NjQ2IDI2Ljg2IDEyLjYwMjggMjYuMjk3NUwxMy44MTU3IDI1LjQwMTFWMjIuNjU4OUwxMi41NTAxIDIxLjcwOTdDMTEuODQ3IDIxLjE4MjMgMTEuNDk1NCAyMC40NjE2IDExLjQ5NTQgMTkuNTQ3NUMxMS40OTU0IDE5LjE5NiAxMS41ODMzIDE4LjgwOTMgMTEuNzU5MSAxOC4zODc0TDEyLjc2MSAxNi40MzYyQzEzLjAwNzEgMTUuOTQ0IDEzLjM0MTEgMTUuNTc0OSAxMy43NjMgMTUuMzI4OEMxNC4yMiAxNS4wODI3IDE0LjY5NDYgMTQuOTU5NyAxNS4xODY4IDE0Ljk1OTdDMTUuNTczNSAxNC45NTk3IDE1LjkwNzUgMTUuMDMgMTYuMTg4OCAxNS4xNzA2TDE3Ljc3MDggMTUuODAzNEwyMC4wMzg0IDE0LjQzMjNMMjAuNDA3NSAxMi42OTIxQzIwLjU0ODEgMTIuMDU5MyAyMC44NjQ1IDExLjU0OTUgMjEuMzU2NyAxMS4xNjI4QzIxLjg0ODkgMTAuNzQwOSAyMi40MTE0IDEwLjUzIDIzLjA0NDIgMTAuNTNIMjQuODg5OUMyNS41MjI3IDEwLjUzIDI2LjA4NTIgMTAuNzQwOSAyNi41Nzc0IDExLjE2MjhDMjcuMDY5NiAxMS41NDk1IDI3LjM4NiAxMi4wNTkzIDI3LjUyNjYgMTIuNjkyMUwyNy44NDMgMTQuNDMyM0wzMC4xNjM0IDE1LjgwMzRMMzEuNzQ1NCAxNS4xNzA2QzMyLjAyNjYgMTUuMDMgMzIuMzYwNiAxNC45NTk3IDMyLjc0NzMgMTQuOTU5N0MzMy4yMzk1IDE0Ljk1OTcgMzMuNjk2NiAxNS4wODI3IDM0LjExODQgMTUuMzI4OEMzNC41NzU1IDE1LjU3NDkgMzQuOTI3IDE1Ljk0NCAzNS4xNzMxIDE2LjQzNjJMMzYuMTIyMyAxOC4zODc0QzM2LjMzMzMgMTguNzM5IDM2LjQzODcgMTkuMTQzMiAzNi40Mzg3IDE5LjYwMDNDMzYuNDM4NyAyMC40NzkyIDM2LjA2OTYgMjEuMTgyMyAzNS4zMzEzIDIxLjcwOTdMMzQuNjMyMyAyMi4yMzM5SDI5LjA1NzJDMjkuMDI0MiAyMi4xNDYxIDI4Ljk4ODYgMjIuMDU5MiAyOC45NTA1IDIxLjk3MzNDMjguNjY5MiAyMS4zMDU0IDI4LjI4MjUgMjAuNzI1MyAyNy43OTAzIDIwLjIzMzFDMjcuMjk4MSAxOS43NDA5IDI2LjcxODEgMTkuMzU0MiAyNi4wNTAxIDE5LjA3MjlDMjUuMzgyMSAxOC43OTE3IDI0LjY3OSAxOC42NTExIDIzLjk0MDcgMTguNjUxMUMyMy4yMDI0IDE4LjY1MTEgMjIuNDk5MyAxOC43OTE3IDIxLjgzMTMgMTkuMDcyOUMyMS4xOTg1IDE5LjM1NDIgMjAuNjM2IDE5Ljc0MDkgMjAuMTQzOCAyMC4yMzMxQzE5LjY1MTcgMjAuNzI1MyAxOS4yNjQ5IDIxLjMwNTQgMTguOTgzNyAyMS45NzMzQzE4LjcwMjQgMjIuNjA2MSAxOC41NjE4IDIzLjI5MTcgMTguNTYxOCAyNC4wM0MxOC41NjE4IDI0Ljc2ODIgMTguNzAyNCAyNS40NzE0IDE4Ljk4MzcgMjYuMTM5M0MxOS4yNjQ5IDI2Ljc3MjIgMTkuNjUxNyAyNy4zMzQ3IDIwLjE0MzggMjcuODI2OEMyMC42MzYgMjguMzE5IDIxLjE5ODUgMjguNzA1NyAyMS44MzEzIDI4Ljk4N0MyMS45NjcxIDI5LjA0NDIgMjIuMTA0MyAyOS4wOTU1IDIyLjI0MjkgMjkuMTQxTDIyLjI0MjkgMzcuNDA4NVoiIGNsaXAtcnVsZT0iZXZlbm9kZCIgZmlsbC1ydWxlPSJldmVub2RkIi8+JiN4YTs8cGF0aCBmaWxsPSJ1cmwoI3BhaW50Ml9yYWRpYWxfMjYyMl8zOTY3KSIgZD0iTTI2LjYzMDQgMjQuOTMzOEMyNS42OTg1IDI0LjkzMzggMjQuOTQyOSAyNS42ODk0IDI0Ljk0MjkgMjYuNjIxM1YzNS44MDcyQzI0Ljk0MjkgMzYuNzM5MiAyNS42OTg1IDM3LjQ5NDcgMjYuNjMwNCAzNy40OTQ3SDM2Ljc4MjVDMzcuNzE0NSAzNy40OTQ3IDM4LjQ3IDM2LjczOTIgMzguNDcgMzUuODA3MlYyNi42MjEzQzM4LjQ3IDI1LjY4OTQgMzcuNzE0NSAyNC45MzM4IDM2Ljc4MjUgMjQuOTMzOEgyNi42MzA0Wk0zMS43MDc2IDI3LjQ3MTRDMzEuNzA3NiAyNy44OTg2IDMxLjM2MTMgMjguMjQ1IDMwLjkzNDEgMjguMjQ1QzMwLjUwNjggMjguMjQ1IDMwLjE2MDUgMjcuODk4NiAzMC4xNjA1IDI3LjQ3MTRDMzAuMTYwNSAyNy4wNDQyIDMwLjUwNjggMjYuNjk3OSAzMC45MzQxIDI2LjY5NzlDMzEuMzYxMyAyNi42OTc5IDMxLjcwNzYgMjcuMDQ0MiAzMS43MDc2IDI3LjQ3MTRaTTM0LjAyNjYgMjcuNDcxNEMzNC4wMjY2IDI3Ljg5ODYgMzMuNjgwMiAyOC4yNDUgMzMuMjUzIDI4LjI0NUMzMi44MjU4IDI4LjI0NSAzMi40Nzk1IDI3Ljg5ODYgMzIuNDc5NSAyNy40NzE0QzMyLjQ3OTUgMjcuMDQ0MiAzMi44MjU4IDI2LjY5NzkgMzMuMjUzIDI2LjY5NzlDMzMuNjgwMiAyNi42OTc5IDM0LjAyNjYgMjcuMDQ0MiAzNC4wMjY2IDI3LjQ3MTRaTTM1LjU3MTkgMjguMjQ1QzM1Ljk5OTEgMjguMjQ1IDM2LjM0NTUgMjcuODk4NiAzNi4zNDU1IDI3LjQ3MTRDMzYuMzQ1NSAyNy4wNDQyIDM1Ljk5OTEgMjYuNjk3OSAzNS41NzE5IDI2LjY5NzlDMzUuMTQ0NyAyNi42OTc5IDM0Ljc5ODQgMjcuMDQ0MiAzNC43OTg0IDI3LjQ3MTRDMzQuNzk4NCAyNy44OTg2IDM1LjE0NDcgMjguMjQ1IDM1LjU3MTkgMjguMjQ1Wk0yNi44NzU0IDMxLjEwOTNDMjYuODc1NCAzMC44OTU5IDI3LjA0ODQgMzAuNzIyOCAyNy4yNjE5IDMwLjcyMjhIMzYuMTUxMUMzNi4zNjQ2IDMwLjcyMjggMzYuNTM3NiAzMC44OTU5IDM2LjUzNzYgMzEuMTA5M1YzNC45Nzc3QzM2LjUzNzYgMzUuMTkxMSAzNi4zNjQ2IDM1LjM2NDEgMzYuMTUxMSAzNS4zNjQxSDI3LjI2MTlDMjcuMDQ4NCAzNS4zNjQxIDI2Ljg3NTQgMzUuMTkxMSAyNi44NzU0IDM0Ljk3NzdWMzEuMTA5M1oiIGNsaXAtcnVsZT0iZXZlbm9kZCIgZmlsbC1ydWxlPSJldmVub2RkIi8+JiN4YTs8L2c+JiN4YTs8L2c+JiN4YTs8ZGVmcz4mI3hhOzxsaW5lYXJHcmFkaWVudCBncmFkaWVudFVuaXRzPSJ1c2VyU3BhY2VPblVzZSIgeTI9IjQ0LjI3OTIiIHgyPSI0MS41NjQ1IiB5MT0iNi44NDc3NSIgeDE9IjQuODUyODciIGlkPSJwYWludDBfbGluZWFyXzI2MjJfMzk2NyI+JiN4YTs8c3RvcCBzdG9wLWNvbG9yPSJ3aGl0ZSIvPiYjeGE7PHN0b3Agc3RvcC1jb2xvcj0iI0VBRUNFRSIgb2Zmc2V0PSIxIi8+JiN4YTs8L2xpbmVhckdyYWRpZW50PiYjeGE7PHJhZGlhbEdyYWRpZW50IGdyYWRpZW50VHJhbnNmb3JtPSJ0cmFuc2xhdGUoMTUuMzYzNSAxNC40NzY1KSByb3RhdGUoNDcuNDU1Nykgc2NhbGUoMjUuNTQwNCA0OC4wODI0KSIgZ3JhZGllbnRVbml0cz0idXNlclNwYWNlT25Vc2UiIHI9IjEiIGN5PSIwIiBjeD0iMCIgaWQ9InBhaW50MV9yYWRpYWxfMjYyMl8zOTY3Ij4mI3hhOzxzdG9wIHN0b3AtY29sb3I9IiMwMTk1RkYiLz4mI3hhOzxzdG9wIHN0b3AtY29sb3I9IiMxMTQ3RTkiIG9mZnNldD0iMSIvPiYjeGE7PC9yYWRpYWxHcmFkaWVudD4mI3hhOzxyYWRpYWxHcmFkaWVudCBncmFkaWVudFRyYW5zZm9ybT0idHJhbnNsYXRlKDI3LjA5NTcgMjYuODE5KSByb3RhdGUoNDIuODc4OSkgc2NhbGUoMTIuOTI3NCAxNS42NDYyKSIgZ3JhZGllbnRVbml0cz0idXNlclNwYWNlT25Vc2UiIHI9IjEiIGN5PSIwIiBjeD0iMCIgaWQ9InBhaW50Ml9yYWRpYWxfMjYyMl8zOTY3Ij4mI3hhOzxzdG9wIHN0b3AtY29sb3I9IiMwMEJCRkYiLz4mI3hhOzxzdG9wIHN0b3AtY29sb3I9IiMwMDhCRkYiIG9mZnNldD0iMSIvPiYjeGE7PC9yYWRpYWxHcmFkaWVudD4mI3hhOzxjbGlwUGF0aCBpZD0iY2xpcDBfMjYyMl8zOTY3Ij4mI3hhOzxyZWN0IHRyYW5zZm9ybT0idHJhbnNsYXRlKDAuNSAwLjAzNDkxMjEpIiBmaWxsPSJ3aGl0ZSIgaGVpZ2h0PSI0OCIgd2lkdGg9IjQ4Ii8+JiN4YTs8L2NsaXBQYXRoPiYjeGE7PGNsaXBQYXRoIGlkPSJjbGlwMV8yNjIyXzM5NjciPiYjeGE7PHJlY3QgdHJhbnNmb3JtPSJ0cmFuc2xhdGUoMTEuNSAxMC41MzQ5KSIgZmlsbD0id2hpdGUiIGhlaWdodD0iMjciIHdpZHRoPSIyNyIvPiYjeGE7PC9jbGlwUGF0aD4mI3hhOzwvZGVmcz4mI3hhOzwvc3ZnPg==;points=[[0,0,0,0,0],[0,0.25,0,0,0],[0,0.5,0,0,0],[0,0.75,0,0,0],[0,1,0,-45,66],[0.25,0,0,0,0],[0.5,0,0,0,0],[0.75,0,0,0,0],[1,0,0,0,0],[1,0.25,0,0,0],[1,0.5,0,0,0],[1,0.75,0,0,0],[1,1,0,167,59],[1,1,0,185,119],[1,1,0,227,108],[1,1,0,253,92]];" parent="C4JjbqjRyMP2yy9lvFBD-388" vertex="1">
          <mxGeometry x="250.04999999999995" y="320.44" width="49" height="49" as="geometry" />
        </mxCell>
        <mxCell id="C4JjbqjRyMP2yy9lvFBD-406" style="edgeStyle=orthogonalEdgeStyle;rounded=0;orthogonalLoop=1;jettySize=auto;html=1;fontSize=18;strokeColor=#188918;fontFamily=Helvetica;fontColor=default;targetPerimeterSpacing=15;endSize=4;startSize=4;endArrow=blockThin;endFill=1;strokeWidth=1.5;startArrow=none;startFill=0;exitX=1.005;exitY=0.631;exitDx=0;exitDy=0;exitPerimeter=0;entryX=-0.046;entryY=0.452;entryDx=0;entryDy=0;entryPerimeter=0;" parent="C4JjbqjRyMP2yy9lvFBD-388" source="C4JjbqjRyMP2yy9lvFBD-413" target="C4JjbqjRyMP2yy9lvFBD-395" edge="1">
          <mxGeometry relative="1" as="geometry">
            <mxPoint x="708.5" y="420.6199999999999" as="targetPoint" />
            <mxPoint x="70" y="197.5" as="sourcePoint" />
          </mxGeometry>
        </mxCell>
        <mxCell id="C4JjbqjRyMP2yy9lvFBD-407" value="" style="endArrow=blockThin;html=1;strokeColor=#188918;bendable=1;rounded=0;endFill=1;endSize=3;strokeWidth=1.5;entryX=0.536;entryY=-0.005;entryDx=0;entryDy=0;edgeStyle=orthogonalEdgeStyle;entryPerimeter=0;startArrow=blockThin;startFill=1;" parent="C4JjbqjRyMP2yy9lvFBD-388" source="C4JjbqjRyMP2yy9lvFBD-395" edge="1">
          <mxGeometry width="50" height="50" relative="1" as="geometry">
            <mxPoint x="227.0000000000001" y="251.80000000000024" as="sourcePoint" />
            <mxPoint x="227.0000000000001" y="304.2000000000001" as="targetPoint" />
            <Array as="points">
              <mxPoint x="227" y="186" />
            </Array>
          </mxGeometry>
        </mxCell>
        <mxCell id="C4JjbqjRyMP2yy9lvFBD-408" style="edgeStyle=orthogonalEdgeStyle;rounded=0;orthogonalLoop=1;jettySize=auto;html=1;fontSize=18;strokeColor=#188918;fontFamily=Helvetica;fontColor=default;targetPerimeterSpacing=15;endSize=4;startSize=4;endArrow=blockThin;endFill=1;strokeWidth=1.5;startArrow=none;startFill=0;entryX=0;entryY=0.121;entryDx=0;entryDy=0;entryPerimeter=0;" parent="C4JjbqjRyMP2yy9lvFBD-388" target="C4JjbqjRyMP2yy9lvFBD-415" edge="1">
          <mxGeometry relative="1" as="geometry">
            <mxPoint x="613.8349999999999" y="112.39200000000005" as="targetPoint" />
            <mxPoint x="452" y="116" as="sourcePoint" />
            <Array as="points">
              <mxPoint x="533" y="116" />
            </Array>
          </mxGeometry>
        </mxCell>
        <mxCell id="C4JjbqjRyMP2yy9lvFBD-409" value="&lt;font color=&quot;#188918&quot; size=&quot;1&quot;&gt;&lt;b style=&quot;&quot;&gt;SAML2/OIDC&lt;/b&gt;&lt;/font&gt;" style="rounded=1;whiteSpace=wrap;html=1;arcSize=50;strokeColor=#188918;fillColor=#f5fae5;fontColor=#266f3a;strokeWidth=1.5;" parent="C4JjbqjRyMP2yy9lvFBD-388" vertex="1">
          <mxGeometry x="379.50000000000045" y="108.25" width="72" height="16" as="geometry" />
        </mxCell>
        <mxCell id="C4JjbqjRyMP2yy9lvFBD-410" style="edgeStyle=orthogonalEdgeStyle;rounded=0;orthogonalLoop=1;jettySize=auto;html=1;fontSize=18;strokeColor=#188918;fontFamily=Helvetica;fontColor=default;targetPerimeterSpacing=15;endSize=4;startSize=4;endArrow=none;endFill=0;strokeWidth=1.5;startArrow=blockThin;startFill=1;exitX=0.687;exitY=0.041;exitDx=0;exitDy=0;exitPerimeter=0;entryX=-0.005;entryY=0.513;entryDx=0;entryDy=0;entryPerimeter=0;" parent="C4JjbqjRyMP2yy9lvFBD-388" source="C4JjbqjRyMP2yy9lvFBD-395" target="C4JjbqjRyMP2yy9lvFBD-409" edge="1">
          <mxGeometry relative="1" as="geometry">
            <mxPoint x="521" y="191.37" as="targetPoint" />
            <mxPoint x="286" y="192.37" as="sourcePoint" />
            <Array as="points">
              <mxPoint x="306" y="117" />
            </Array>
          </mxGeometry>
        </mxCell>
        <mxCell id="C4JjbqjRyMP2yy9lvFBD-411" style="edgeStyle=orthogonalEdgeStyle;rounded=0;orthogonalLoop=1;jettySize=auto;html=1;fontSize=18;strokeColor=#188918;fontFamily=Helvetica;fontColor=default;targetPerimeterSpacing=15;endSize=4;startSize=4;endArrow=blockThin;endFill=1;strokeWidth=1.5;startArrow=none;startFill=0;entryX=0.28;entryY=0.036;entryDx=0;entryDy=0;entryPerimeter=0;exitX=0.966;exitY=0.492;exitDx=0;exitDy=0;exitPerimeter=0;" parent="C4JjbqjRyMP2yy9lvFBD-388" source="C4JjbqjRyMP2yy9lvFBD-435" target="C4JjbqjRyMP2yy9lvFBD-395" edge="1">
          <mxGeometry relative="1" as="geometry">
            <mxPoint x="218.5" y="178.5" as="targetPoint" />
            <mxPoint x="106" y="218.5" as="sourcePoint" />
          </mxGeometry>
        </mxCell>
        <mxCell id="C4JjbqjRyMP2yy9lvFBD-412" value="" style="edgeStyle=orthogonalEdgeStyle;rounded=0;orthogonalLoop=1;jettySize=auto;html=1;fontSize=18;strokeColor=#188918;fontFamily=Helvetica;fontColor=default;targetPerimeterSpacing=15;endSize=4;startSize=4;endArrow=blockThin;endFill=1;strokeWidth=1.5;startArrow=blockThin;startFill=1;entryX=0.484;entryY=1;entryDx=0;entryDy=0;exitX=0.982;exitY=0.677;exitDx=0;exitDy=0;exitPerimeter=0;entryPerimeter=0;" parent="C4JjbqjRyMP2yy9lvFBD-388" source="C4JjbqjRyMP2yy9lvFBD-444" target="C4JjbqjRyMP2yy9lvFBD-403" edge="1">
          <mxGeometry relative="1" as="geometry">
            <mxPoint x="62.00000000000023" y="371" as="targetPoint" />
            <mxPoint x="94" y="154" as="sourcePoint" />
            <Array as="points">
              <mxPoint x="157" y="352" />
              <mxPoint x="157" y="477" />
              <mxPoint x="272" y="477" />
            </Array>
          </mxGeometry>
        </mxCell>
        <mxCell id="C4JjbqjRyMP2yy9lvFBD-413" value="&lt;font color=&quot;#188918&quot; size=&quot;1&quot;&gt;&lt;b style=&quot;&quot;&gt;SAML2/OIDC&lt;/b&gt;&lt;/font&gt;" style="rounded=1;whiteSpace=wrap;html=1;arcSize=50;strokeColor=#188918;fillColor=#f5fae5;fontColor=#266f3a;strokeWidth=1.5;" parent="C4JjbqjRyMP2yy9lvFBD-388" vertex="1">
          <mxGeometry x="146.00000000000045" y="169" width="72" height="16" as="geometry" />
        </mxCell>
        <mxCell id="C4JjbqjRyMP2yy9lvFBD-414" value="" style="group" parent="C4JjbqjRyMP2yy9lvFBD-388" vertex="1" connectable="0">
          <mxGeometry x="599" y="98" width="158.17218543046351" height="144" as="geometry" />
        </mxCell>
        <mxCell id="C4JjbqjRyMP2yy9lvFBD-415" value="" style="rounded=1;whiteSpace=wrap;html=1;strokeColor=#0070F2;strokeWidth=1.5;arcSize=16;fillColor=#FFFFFF;perimeterSpacing=0;absoluteArcSize=1;" parent="C4JjbqjRyMP2yy9lvFBD-414" vertex="1">
          <mxGeometry width="153" height="144" as="geometry" />
        </mxCell>
        <mxCell id="C4JjbqjRyMP2yy9lvFBD-416" value="&lt;font face=&quot;arial&quot; style=&quot;font-size: 16px;&quot;&gt;&lt;b style=&quot;font-size: 16px;&quot;&gt;SAP Cloud &lt;br&gt;Solutions&lt;/b&gt;&lt;/font&gt;" style="text;html=1;align=left;verticalAlign=middle;resizable=0;points=[];autosize=1;strokeColor=none;fillColor=none;fontSize=12;fontColor=#1d2d3e;fontFamily=Helvetica;" parent="C4JjbqjRyMP2yy9lvFBD-414" vertex="1">
          <mxGeometry x="12.158940397350989" y="30.004107142857436" width="100" height="50" as="geometry" />
        </mxCell>
        <mxCell id="C4JjbqjRyMP2yy9lvFBD-417" value="&lt;div style=&quot;&quot;&gt;&lt;span style=&quot;font-size: 10px;&quot;&gt;*check SAP Help portal for &lt;br&gt;list of supported solutions for&lt;br&gt;manual integration or &lt;br&gt;as content channel&lt;/span&gt;&lt;/div&gt;" style="text;html=1;align=left;verticalAlign=middle;resizable=0;points=[];autosize=1;strokeColor=none;fillColor=none;fontSize=12;fontColor=#556B82;fontFamily=Helvetica;" parent="C4JjbqjRyMP2yy9lvFBD-414" vertex="1">
          <mxGeometry x="13.172185430463514" y="73.49935714285715" width="145" height="70" as="geometry" />
        </mxCell>
        <mxCell id="C4JjbqjRyMP2yy9lvFBD-418" value="" style="shape=image;verticalLabelPosition=bottom;labelBackgroundColor=default;verticalAlign=top;imageAspect=0;image=data:image/svg+xml,PHN2ZyB4bWxucz0iaHR0cDovL3d3dy53My5vcmcvMjAwMC9zdmciIGZpbGw9Im5vbmUiIHZpZXdCb3g9IjAgMCAxNyAxMiIgaGVpZ2h0PSIxMiIgd2lkdGg9IjE3Ij4mI3hhOzxwYXRoIGZpbGw9InVybCgjcGFpbnQwX2xpbmVhcl83MjRfMTQpIiBkPSJNMTIuMzQ2MSAxMS45OTc0SDMuODE0ODVDMy4zNTY1MiAxMS45OTc0IDIuOTE5MDIgMTEuOTAzNiAyLjUwMjM1IDExLjcxNjJDMi4wODU2OCAxMS41MDc4IDEuNzIxMSAxMS4yMzcgMS40MDg2IDEwLjkwMzZDMS4wOTYxIDEwLjU0OTUgMC44NDYxIDEwLjE0MzIgMC42NTg2IDkuNjg0OTFDMC40OTE5MyA5LjIyNjYxIDAuNDA4NiA4LjczNzAxIDAuNDA4NiA4LjIxNjIxQzAuNDA4NiA3LjcxNjE2IDAuNDkxOTMgNy4yMzY5OSAwLjY1ODYgNi43Nzg2NkMwLjg0NjEgNi4zMjAzMyAxLjA4NTY4IDUuOTI0NDkgMS4zNzczNSA1LjU5MTE2QzEuNjY5MDIgNS4yMzY5OSAyLjAxMjc3IDQuOTY2MTYgMi40MDg2IDQuNzc4NjZDMi44MjUyNyA0LjU3MDMzIDMuMjYyNzcgNC40NjYxNiAzLjcyMTEgNC40NjYxNkMzLjgyNTI3IDMuODQxMTYgNC4wMTI3NyAzLjI1NzgzIDQuMjgzNiAyLjcxNjE2QzQuNTU0NDMgMi4xNTM2NiA0Ljg5ODE4IDEuNjc0NDkgNS4zMTQ4NSAxLjI3ODY2QzUuNzMxNTIgMC44ODI4MzQgNi4yMDAyNyAwLjU3MDMzNCA2LjcyMTEgMC4zNDExNjRDNy4yNjI3NyAwLjExMTk5NCA3LjgyNTI3IC0wLjAwMjU4NjM2IDguNDA4NiAtMC4wMDI1ODYzNkM5LjMwNDQzIC0wLjAwMjU4NjM2IDEwLjEzNzcgMC4yNjgyNDQgMTAuOTA4NiAwLjgwOTkxNEMxMS42Nzk0IDEuMzUxNTggMTIuMjczMSAyLjA4MDc0IDEyLjY4OTggMi45OTc0MUMxMy4yMTA2IDMuMDM5MDggMTMuNzAwMiAzLjE4NDkxIDE0LjE1ODYgMy40MzQ5MUMxNC42MTY5IDMuNjg0OTEgMTUuMDEyOCA0LjAxODI0IDE1LjM0NjEgNC40MzQ5MUMxNS42Nzk1IDQuODMwNzQgMTUuOTM5OCA1LjI4OTA4IDE2LjEyNzMgNS44MDk5MUMxNi4zMTQ4IDYuMzMwNzQgMTYuNDA4NiA2Ljg5MzI0IDE2LjQwODYgNy40OTc0MUMxNi40MDg2IDguMTIyNDEgMTYuMzA0NSA4LjcxNjIxIDE2LjA5NjEgOS4yNzg2MUMxNS44ODc4IDkuODIwMzEgMTUuNTk2MSAxMC4yOTk1IDE1LjIyMTEgMTAuNzE2MkMxNC44NjcgMTEuMTEyIDE0LjQzOTggMTEuNDI0NSAxMy45Mzk4IDExLjY1MzZDMTMuNDM5OCAxMS44ODI4IDEyLjkwODcgMTEuOTk3NCAxMi4zNDYxIDExLjk5NzRaTTMuODE0ODUgNi4wNTk5MUMzLjMxNDg1IDYuMDU5OTEgMi44ODc3NyA2LjI2ODI0IDIuNTMzNiA2LjY4NDkxQzIuMTc5NDMgNy4xMDE1OCAyLjAwMjM1IDcuNjExOTkgMi4wMDIzNSA4LjIxNjIxQzIuMDAyMzUgOC44MjAzMSAyLjE3OTQzIDkuMzQxMjEgMi41MzM2IDkuNzc4NjFDMi44ODc3NyAxMC4xOTUzIDMuMzE0ODUgMTAuNDAzNiAzLjgxNDg1IDEwLjQwMzZIMTIuMzQ2MUMxMy4wMzM3IDEwLjQwMzYgMTMuNjE3IDEwLjEyMjQgMTQuMDk2MSA5LjU1OTkxQzE0LjU3NTMgOC45OTc0MSAxNC44MTQ4IDguMzA5OTEgMTQuODE0OCA3LjQ5NzQxQzE0LjgxNDggNi42NjQwOCAxNC41NzUzIDUuOTY2MTYgMTQuMDk2MSA1LjQwMzY2QzEzLjYxNyA0Ljg0MTE2IDEzLjAzMzcgNC41NTk5MSAxMi4zNDYxIDQuNTU5OTFIMTIuMTI3M0MxMS43NzMxIDQuNTU5OTEgMTEuNTIzMSA0LjM4MjgzIDExLjM3NzMgNC4wMjg2NkMxMS4xMjczIDMuMjk5NDkgMTAuNzMxNSAyLjcxNjE2IDEwLjE4OTggMi4yNzg2NkM5LjY0ODE1IDEuODIwMzMgOS4wNTQ0MyAxLjU5MTE2IDguNDA4NiAxLjU5MTE2QzcuOTcxMSAxLjU5MTE2IDcuNTY0ODUgMS42OTUzMyA3LjE4OTg1IDEuOTAzNjZDNi44MTQ4NSAyLjA5MTE2IDYuNDgxNTIgMi4zNTE1OCA2LjE4OTg1IDIuNjg0OTFDNS45MTkwMiAyLjk5NzQxIDUuNzAwMjcgMy4zODI4MyA1LjUzMzYgMy44NDExNkM1LjM2NjkzIDQuMjc4NjYgNS4yODM2IDQuNzQ3NDEgNS4yODM2IDUuMjQ3NDFDNS4yODM2IDUuNDc2NTggNS4yMDAyNyA1LjY3NDQ5IDUuMDMzNiA1Ljg0MTE2QzQuODg3NzcgNS45ODY5OSA0LjcwMDI3IDYuMDU5OTEgNC40NzExIDYuMDU5OTFIMy44MTQ4NVoiLz4mI3hhOzxkZWZzPiYjeGE7PGxpbmVhckdyYWRpZW50IGdyYWRpZW50VW5pdHM9InVzZXJTcGFjZU9uVXNlIiB5Mj0iMTAuMzM3MyIgeDI9IjE0LjI2MDIiIHkxPSIxLjEyNjIzIiB4MT0iMi40NzY0NiIgaWQ9InBhaW50MF9saW5lYXJfNzI0XzE0Ij4mI3hhOzxzdG9wIHN0b3AtY29sb3I9IiMyMzk1RkYiLz4mI3hhOzxzdG9wIHN0b3AtY29sb3I9IiMwMDU3RDIiIG9mZnNldD0iMSIvPiYjeGE7PC9saW5lYXJHcmFkaWVudD4mI3hhOzwvZGVmcz4mI3hhOzwvc3ZnPg==;strokeWidth=1.5;aspect=fixed;" parent="C4JjbqjRyMP2yy9lvFBD-414" vertex="1">
          <mxGeometry x="13.169999999999845" y="12.1099999999999" width="28" height="17.89" as="geometry" />
        </mxCell>
        <mxCell id="C4JjbqjRyMP2yy9lvFBD-419" value="" style="group" parent="C4JjbqjRyMP2yy9lvFBD-388" vertex="1" connectable="0">
          <mxGeometry y="99" width="212" height="67" as="geometry" />
        </mxCell>
        <mxCell id="C4JjbqjRyMP2yy9lvFBD-420" value="" style="group" parent="C4JjbqjRyMP2yy9lvFBD-419" vertex="1" connectable="0">
          <mxGeometry y="27" width="180" height="40" as="geometry" />
        </mxCell>
        <mxCell id="C4JjbqjRyMP2yy9lvFBD-421" value="&lt;div style=&quot;&quot;&gt;&lt;div style=&quot;text-align: center;&quot;&gt;&lt;span style=&quot;font-size: 10px; background-color: initial;&quot;&gt;Third party identity provider /&lt;/span&gt;&lt;/div&gt;&lt;font style=&quot;font-size: 10px;&quot;&gt;&lt;div style=&quot;text-align: center;&quot;&gt;&lt;span style=&quot;background-color: initial;&quot;&gt;identity management&lt;/span&gt;&lt;/div&gt;&lt;/font&gt;&lt;/div&gt;" style="text;html=1;align=left;verticalAlign=middle;resizable=0;points=[];autosize=1;strokeColor=none;fillColor=none;fontSize=12;fontColor=#556B82;fontFamily=Helvetica;" parent="C4JjbqjRyMP2yy9lvFBD-420" vertex="1">
          <mxGeometry x="35" y="1" width="145" height="38" as="geometry" />
        </mxCell>
        <mxCell id="C4JjbqjRyMP2yy9lvFBD-422" value="" style="shape=image;verticalLabelPosition=bottom;labelBackgroundColor=default;verticalAlign=top;aspect=fixed;imageAspect=0;image=data:image/svg+xml,PHN2ZyB4bWxucz0iaHR0cDovL3d3dy53My5vcmcvMjAwMC9zdmciIGZpbGw9Im5vbmUiIHZpZXdCb3g9IjAgMCAxNyAxNyIgaGVpZ2h0PSIxNyIgd2lkdGg9IjE3Ij4mI3hhOzxwYXRoIGZpbGw9InVybCgjcGFpbnQwX2xpbmVhcl83NzVfOCkiIGQ9Ik0xMy42NzU2IDguNjM3NDhDMTQuNjQ2OSA5LjE3MTcxIDE1LjQ2NDcgOS45NDY0NiAxNi4wNTA2IDEwLjg4NzVDMTYuNjU0NiAxMS44NDU1IDE2Ljk1NjYgMTIuOTI4NSAxNi45NTY2IDE0LjEzNzVWMTUuOTE4NUMxNi45NTY2IDE2LjUwMTUgMTYuNjU0NiAxNi43OTM1IDE2LjA1MDYgMTYuNzkzNUg1LjQyNTY0QzUuMTU0NjQgMTYuNzkzNSA0LjkzNTY0IDE2LjcxMDUgNC43Njg2NCAxNi41NDM1QzQuNjAyNjQgMTYuMzk3NSA0LjUxODY0IDE2LjE4OTUgNC41MTg2NCAxNS45MTg1VjE1LjAxMjVIMS44NjI2NEMxLjI3OTY0IDE1LjAxMjUgMC45ODc2NCAxNC43MjA1IDAuOTg3NjQgMTQuMTM3NVYxMi4zNTY1QzAuOTg3NjQgMTEuNDgwNSAxLjIyNzY0IDEwLjY4OTUgMS43MDY2NCA5Ljk4MDQ4QzIuMTY0MzUgOS4yOTEwOSAyLjgwMjA3IDguNzQwMTcgMy41NTA2NCA4LjM4NzQ4QzMuMjg2MjIgOC4wODYyMyAzLjA4NDMxIDcuNzM1NDMgMi45NTY2NCA3LjM1NTQ4QzIuODMzNCA2Ljk3MTgxIDIuNzY5OTkgNi41NzE0NSAyLjc2ODY0IDYuMTY4NDhDMi43Njg2NCA1LjY2ODQ4IDIuODYyNjQgNS4yMTA0OCAzLjA1MDY0IDQuNzkzNDhDMy4yMzc2NCA0LjM1NTQ4IDMuNDg3NjQgMy45ODA0OCAzLjgwMDY0IDMuNjY4NDhDNC4xMjQ3OCAzLjM0MTYxIDQuNTA2MDggMy4wNzY5IDQuOTI1NjQgMi44ODc0OEM1LjM1OTkyIDIuNzAwNzMgNS44Mjc5MSAyLjYwNTA5IDYuMzAwNjQgMi42MDY0OEM2LjQ0NjY0IDIuNjA2NDggNi41ODE2NCAyLjYxNjQ4IDYuNzA2NjQgMi42MzY0OEM2LjgzMTY0IDIuNjM2NDggNi45NjY2NCAyLjY1ODQ4IDcuMTEyNjQgMi42OTk0OEM3LjUwMjE5IDIuMTIxOSA4LjAyODQ3IDEuNjQ5NTYgOC42NDQ2NCAxLjMyNDQ4QzkuMjkxNTggMC45OTA5MiAxMC4wMDk4IDAuODE5MzQzIDEwLjczNzYgMC44MjQ0NzZDMTEuMzYyNiAwLjgyNDQ3NiAxMS45NDY2IDAuOTM5NDc2IDEyLjQ4NzYgMS4xNjg0OEMxMy4wMjk2IDEuMzk4NDggMTMuNDk3NiAxLjcyMDQ4IDEzLjg5MzYgMi4xMzc0OEMxNC4yODk2IDIuNTMzNDggMTQuNjAyNiAzLjAwMTQ4IDE0LjgzMTYgMy41NDM0OEMxNS4wNjE2IDQuMDYzNDggMTUuMTc1NiA0LjYzNzQ4IDE1LjE3NTYgNS4yNjI0OEMxNS4xNzc3IDUuOTE5NDggMTUuMDM5MiA2LjU2OTMzIDE0Ljc2OTYgNy4xNjg0OEMxNC41MjkgNy43MzkzMiAxNC4xNTM2IDguMjQzMzYgMTMuNjc1NiA4LjYzNzQ4Wk0xMC43MzY2IDIuNjA1NDhDOS45ODY2NCAyLjYwNTQ4IDkuMzUxNjQgMi44NjU0OCA4LjgzMDY0IDMuMzg3NDhDOC4zMzA2NCAzLjg4NzQ4IDguMDgwNjQgNC41MTI0OCA4LjA4MDY0IDUuMjYyNDhDOC4wODA2NCA2LjAxMjQ4IDguMzMwNjQgNi42NDc0OCA4LjgzMDY0IDcuMTY4NDhDOS4zNTA2NCA3LjY2ODQ4IDkuOTg2NjQgNy45MTg0OCAxMC43MzY2IDcuOTE4NDhDMTEuNDg2NiA3LjkxODQ4IDEyLjExMTYgNy42Njg0OCAxMi42MTE2IDcuMTY4NDhDMTMuMTMyNiA2LjY0ODQ4IDEzLjM5MjYgNi4wMTI0OCAxMy4zOTI2IDUuMjYyNDhDMTMuMzkyNiA0LjUxMjQ4IDEzLjEzMjYgMy44ODc0OCAxMi42MTI2IDMuMzg3NDhDMTIuMTEyNiAyLjg2NjQ4IDExLjQ4NjYgMi42MDU0OCAxMC43MzY2IDIuNjA1NDhaTTYuMjA2NjQgNC4zODg0OEM1LjcyNjY0IDQuMzg4NDggNS4zMTA2NCA0LjU2NTQ4IDQuOTU2NjQgNC45MTk0OEM0LjYyMzY0IDUuMjUyNDggNC40NTY2NCA1LjY2OTQ4IDQuNDU2NjQgNi4xNjk0OEM0LjQ1NjY0IDYuNjQ5NDggNC42MjM2NCA3LjA2NTQ4IDQuOTU2NjQgNy40MTk0OEM1LjMxMDY0IDcuNzUyNDggNS43MjY2NCA3LjkxOTQ4IDYuMjA2NjQgNy45MTk0OEg3LjIwNjY0QzYuOTI3MDggNy41NDg5OCA2LjcwNTg1IDcuMTM3ODkgNi41NTA2NCA2LjcwMDQ4QzYuMzg3MDYgNi4yMzg5NSA2LjMwMjU0IDUuNzUzMTMgNi4zMDA2NCA1LjI2MzQ4VjQuODIzNDhDNi4zMTczMiA0LjY3NTEzIDYuMzQ4NDcgNC41Mjg3NiA2LjM5MzY0IDQuMzg2NDhINi4yMDY2NFY0LjM4ODQ4Wk0yLjc2ODY0IDEzLjI2MzVINC42MTI2NEM0LjgwMDY0IDExLjgyNTUgNS4zOTM2NCAxMC42Mzg1IDYuMzkzNjQgOS43MDA0N0g1LjQyNjY0QzQuNjc2NjQgOS43MDA0NyA0LjA0MDY0IDkuOTYwNDcgMy41MTk2NCAxMC40ODE1QzMuMDE5NjQgMTAuOTgxNSAyLjc2OTY0IDExLjYwNzUgMi43Njk2NCAxMi4zNTc1TDIuNzY4NjQgMTMuMjYzNVpNMTUuMTc1NiAxNC4xMzg1QzE1LjE4MjYgMTMuNTQ3NyAxNS4wNjU0IDEyLjk2MjEgMTQuODMxNiAxMi40MTk1QzE0LjYxMzMgMTEuODk0MyAxNC4yOTQ3IDExLjQxNjcgMTMuODkzNiAxMS4wMTM1QzEzLjQ5NzQgMTAuNTk2MyAxMy4wMTg1IDEwLjI2NjMgMTIuNDg3NiAxMC4wNDQ1QzExLjkzMzUgOS44MTI3MyAxMS4zMzgyIDkuNjk1NzEgMTAuNzM3NiA5LjcwMDQ3QzEwLjExMjYgOS43MDA0NyA5LjUyOTY0IDkuODE1NDggOC45ODc2NCAxMC4wNDQ1QzguNDY3NjQgMTAuMjc0NSA3Ljk5NzY0IDEwLjU5NjUgNy41ODE2NCAxMS4wMTM1QzcuMTgwNTggMTEuNDE2NyA2Ljg2MTk3IDExLjg5NDMgNi42NDM2NCAxMi40MTk1QzYuNDEwMjggMTIuOTYyMiA2LjI5MzQzIDEzLjU0NzggNi4zMDA2NCAxNC4xMzg1VjE1LjAxMzVIMTUuMTc1NlYxNC4xMzg1WiIvPiYjeGE7PGRlZnM+JiN4YTs8bGluZWFyR3JhZGllbnQgZ3JhZGllbnRVbml0cz0idXNlclNwYWNlT25Vc2UiIHkyPSIxNi43OTM1IiB4Mj0iOC45NzIxNCIgeTE9IjAuODI0MzY0IiB4MT0iOC45NzIxNCIgaWQ9InBhaW50MF9saW5lYXJfNzc1XzgiPiYjeGE7PHN0b3Agc3RvcC1jb2xvcj0iIzVCNzM4QiIvPiYjeGE7PHN0b3Agc3RvcC1jb2xvcj0iIzIyMzU0OCIgb2Zmc2V0PSIxIi8+JiN4YTs8L2xpbmVhckdyYWRpZW50PiYjeGE7PC9kZWZzPiYjeGE7PC9zdmc+;" parent="C4JjbqjRyMP2yy9lvFBD-419" vertex="1">
          <mxGeometry x="77.5" width="28" height="28" as="geometry" />
        </mxCell>
        <mxCell id="C4JjbqjRyMP2yy9lvFBD-423" value="" style="group" parent="C4JjbqjRyMP2yy9lvFBD-388" vertex="1" connectable="0">
          <mxGeometry x="598" y="288" width="154.06999999999994" height="167.25" as="geometry" />
        </mxCell>
        <mxCell id="C4JjbqjRyMP2yy9lvFBD-424" value="" style="rounded=1;whiteSpace=wrap;html=1;strokeColor=#0070F2;strokeWidth=1.5;arcSize=16;fillColor=#FFFFFF;perimeterSpacing=0;absoluteArcSize=1;" parent="C4JjbqjRyMP2yy9lvFBD-423" vertex="1">
          <mxGeometry width="153" height="167.25" as="geometry" />
        </mxCell>
        <mxCell id="C4JjbqjRyMP2yy9lvFBD-425" value="&lt;p style=&quot;line-height: 110%;&quot;&gt;&lt;font face=&quot;arial&quot; style=&quot;font-size: 16px;&quot;&gt;&lt;b style=&quot;font-size: 16px;&quot;&gt;SAP On-Premise &lt;br&gt;Solutions&lt;/b&gt;&lt;/font&gt;&lt;/p&gt;" style="text;html=1;align=left;verticalAlign=middle;resizable=0;points=[];autosize=1;strokeColor=none;fillColor=none;fontSize=12;fontColor=#1d2d3e;fontFamily=Helvetica;" parent="C4JjbqjRyMP2yy9lvFBD-423" vertex="1">
          <mxGeometry x="9.069999999999936" y="26.250000000000227" width="145" height="66" as="geometry" />
        </mxCell>
        <mxCell id="C4JjbqjRyMP2yy9lvFBD-426" value="" style="shape=image;verticalLabelPosition=bottom;labelBackgroundColor=default;verticalAlign=top;aspect=fixed;imageAspect=0;image=data:image/svg+xml,PHN2ZyB4bWxucz0iaHR0cDovL3d3dy53My5vcmcvMjAwMC9zdmciIGZpbGw9Im5vbmUiIHZpZXdCb3g9IjAgMCAxNiAxNyIgaGVpZ2h0PSIxNyIgd2lkdGg9IjE2Ij4mI3hhOzxwYXRoIGZpbGw9InVybCgjcGFpbnQwX2xpbmVhcl83MjRfMTIpIiBkPSJNMTQuMzMzNSA1LjgzNDk0QzE0LjU4MzUgNi4wODQ5NCAxNC43ODE0IDYuMzc2NjEgMTQuOTI3MiA2LjcwOTk0QzE1LjA5MzkgNy4wMjI0NCAxNS4xNzcyIDcuMzY2MTkgMTUuMTc3MiA3Ljc0MTE5VjE0LjQyODdDMTUuMTc3MiAxNS4xMzcgMTQuOTM3NiAxNS43MjA0IDE0LjQ1ODUgMTYuMTc4N0MxMy45NzkzIDE2LjY1NzkgMTMuMzg1NSAxNi44OTc1IDEyLjY3NzIgMTYuODk3NUgyLjc3MDk0QzIuMDgzNDQgMTYuODk3NSAxLjUwMDExIDE2LjY1NzkgMS4wMjA5NCAxNi4xNzg3QzAuNTQxNzY4IDE1LjcyMDQgMC4zMDIxODUgMTUuMTM3IDAuMzAyMTg1IDE0LjQyODdWNy43NDExOUMwLjMwMjE4NSA2Ljk0OTUyIDAuNTgzNDM1IDYuMzE0MTEgMS4xNDU5NCA1LjgzNDk0TDYuMDgzNDQgMS41NTM2OUM2LjU4MzQ0IDEuMTM3MDIgNy4xNDU5NCAwLjkyODY4OCA3Ljc3MDk0IDAuOTI4Njg4QzguMzk1OTQgMC45Mjg2ODggOC45Mzc2MSAxLjEzNzAyIDkuMzk1OTQgMS41NTM2OUwxNC4zMzM1IDUuODM0OTRaTTguOTg5NjkgMTAuMzAzN0g2LjQ4OTY5VjE1LjI3MjVIOC45ODk2OVYxMC4zMDM3Wk0xMy40MjcyIDcuNzQxMTlDMTMuNDI3MiA3LjQ3MDM2IDEzLjM0MzkgNy4yNTE2MSAxMy4xNzcyIDcuMDg0OTRMOC4yMzk2OSAyLjgwMzY5QzcuODg1NTIgMi41MzI4NiA3LjUyMDk0IDIuNTMyODYgNy4xNDU5NCAyLjgwMzY5TDIuMjA4NDQgNy4wODQ5NEMyLjA0MTc3IDcuMjUxNjEgMS45NTg0NCA3LjQ3MDM2IDEuOTU4NDQgNy43NDExOVYxNC40Mjg3QzEuOTU4NDQgMTQuNjc4NyAyLjAzMTM2IDE0Ljg4NyAyLjE3NzE5IDE1LjA1MzdDMi4zNDM4NiAxNS4xOTk1IDIuNTQxNzcgMTUuMjcyNSAyLjc3MDk0IDE1LjI3MjVINC44MzM0NFYxMC4zMDM3QzQuODMzNDQgOS44NDUzNiA0Ljk4OTY5IDkuNDU5OTQgNS4zMDIxOSA5LjE0NzQ0QzUuNjM1NTIgOC44MTQxMSA2LjAzMTM2IDguNjQ3NDQgNi40ODk2OSA4LjY0NzQ0SDguOTg5NjlDOS40NDgwMiA4LjY0NzQ0IDkuODMzNDkgOC44MTQxMSAxMC4xNDU5IDkuMTQ3NDRDMTAuNDU4NSA5LjQ1OTk0IDEwLjYxNDcgOS44NDUzNiAxMC42MTQ3IDEwLjMwMzdWMTUuMjcyNUgxMi42NzcyQzEyLjkyNzIgMTUuMjcyNSAxMy4xMjUxIDE1LjE5OTUgMTMuMjcwOSAxNS4wNTM3QzEzLjQzNzYgMTQuODg3IDEzLjUyMDkgMTQuNjc4NyAxMy41MjA5IDE0LjQyODdMMTMuNDI3MiA3Ljc0MTE5WiIvPiYjeGE7PGRlZnM+JiN4YTs8bGluZWFyR3JhZGllbnQgZ3JhZGllbnRVbml0cz0idXNlclNwYWNlT25Vc2UiIHkyPSI5Ljg1NDkiIHgyPSIxNS44MTkzIiB5MT0iMi40MzA4NCIgeDE9IjIuMjI0NjQiIGlkPSJwYWludDBfbGluZWFyXzcyNF8xMiI+JiN4YTs8c3RvcCBzdG9wLWNvbG9yPSIjMjM5NUZGIi8+JiN4YTs8c3RvcCBzdG9wLWNvbG9yPSIjMDA1N0QyIiBvZmZzZXQ9IjEiLz4mI3hhOzwvbGluZWFyR3JhZGllbnQ+JiN4YTs8L2RlZnM+JiN4YTs8L3N2Zz4=;strokeWidth=1.5;" parent="C4JjbqjRyMP2yy9lvFBD-423" vertex="1">
          <mxGeometry x="10.889999999999873" y="9.750000000000227" width="26.36" height="28" as="geometry" />
        </mxCell>
        <mxCell id="C4JjbqjRyMP2yy9lvFBD-427" value="&lt;span style=&quot;font-family: Helvetica; font-style: normal; font-variant-ligatures: normal; font-variant-caps: normal; font-weight: 700; letter-spacing: normal; orphans: 2; text-indent: 0px; text-transform: none; widows: 2; word-spacing: 0px; -webkit-text-stroke-width: 0px; text-decoration-thickness: initial; text-decoration-style: initial; text-decoration-color: initial; float: none; font-size: 10px; display: inline !important;&quot;&gt;&lt;font style=&quot;font-size: 10px;&quot;&gt;SAP S/4HANA&lt;/font&gt;&lt;/span&gt;" style="text;whiteSpace=wrap;html=1;align=left;container=0;verticalAlign=middle;fontColor=#1D2D3E;fontSize=10;" parent="C4JjbqjRyMP2yy9lvFBD-423" vertex="1">
          <mxGeometry x="9.069999999999936" y="73.11999999999989" width="74.25" height="22" as="geometry" />
        </mxCell>
        <mxCell id="C4JjbqjRyMP2yy9lvFBD-428" value="&lt;span style=&quot;font-family: Helvetica; font-style: normal; font-variant-ligatures: normal; font-variant-caps: normal; font-weight: 700; letter-spacing: normal; orphans: 2; text-indent: 0px; text-transform: none; widows: 2; word-spacing: 0px; -webkit-text-stroke-width: 0px; text-decoration-thickness: initial; text-decoration-style: initial; text-decoration-color: initial; float: none; font-size: 10px; display: inline !important;&quot;&gt;&lt;font style=&quot;font-size: 10px;&quot;&gt;SAP S/4HANA PCE&lt;/font&gt;&lt;/span&gt;" style="text;whiteSpace=wrap;html=1;align=left;container=0;verticalAlign=middle;fontColor=#1D2D3E;fontSize=10;" parent="C4JjbqjRyMP2yy9lvFBD-423" vertex="1">
          <mxGeometry x="9.069999999999936" y="86.25" width="98" height="22" as="geometry" />
        </mxCell>
        <mxCell id="C4JjbqjRyMP2yy9lvFBD-429" value="&lt;span style=&quot;font-family: Helvetica; font-style: normal; font-variant-ligatures: normal; font-variant-caps: normal; font-weight: 700; letter-spacing: normal; orphans: 2; text-indent: 0px; text-transform: none; widows: 2; word-spacing: 0px; -webkit-text-stroke-width: 0px; text-decoration-thickness: initial; text-decoration-style: initial; text-decoration-color: initial; float: none; font-size: 10px; display: inline !important;&quot;&gt;&lt;font style=&quot;font-size: 10px;&quot;&gt;SAP ECC&lt;/font&gt;&lt;/span&gt;" style="text;whiteSpace=wrap;html=1;align=left;container=0;verticalAlign=middle;fontColor=#1D2D3E;fontSize=10;" parent="C4JjbqjRyMP2yy9lvFBD-423" vertex="1">
          <mxGeometry x="9.069999999999936" y="99.25" width="69" height="22" as="geometry" />
        </mxCell>
        <mxCell id="C4JjbqjRyMP2yy9lvFBD-430" value="" style="shape=image;verticalLabelPosition=bottom;labelBackgroundColor=default;verticalAlign=top;aspect=fixed;imageAspect=0;image=data:image/svg+xml,PHN2ZyB4bWxucz0iaHR0cDovL3d3dy53My5vcmcvMjAwMC9zdmciIGZpbGw9Im5vbmUiIHZpZXdCb3g9IjAgMCAxNyAxNyIgaGVpZ2h0PSIxNyIgd2lkdGg9IjE3Ij4mI3hhOzxwYXRoIGZpbGw9InVybCgjcGFpbnQwX2xpbmVhcl83MjNfMTEpIiBkPSJNMTUuODQ0NyAxNC45OTYyQzE2LjAxMTQgMTUuMTYyOSAxNi4wOTQ3IDE1LjM0IDE2LjA5NDcgMTUuNTI3NEMxNi4wOTQ3IDE1LjczNTggMTYuMDExNCAxNS45MjMzIDE1Ljg0NDcgMTYuMDlDMTUuNjc4IDE2LjI1NjYgMTUuNDkwNSAxNi4zNCAxNS4yODIyIDE2LjM0QzE1LjA3MzkgMTYuMzQgMTQuODg2NCAxNi4yNTY2IDE0LjcxOTcgMTYuMDlMMTEuNzgyMiAxMy4xNTI0QzExLjEzNjQgMTMuNjczMyAxMC40MDcyIDEzLjkxMjkgOS41OTQ2NyAxMy44NzEyQzguNzgyMTcgMTMuODI5NSA4LjA3Mzg0IDEzLjUwNjYgNy40Njk2NyAxMi45MDI0TDMuNjI1OTIgOS4wODk5N0MzLjMzNDI1IDguNzc3NDcgMy4xMDUwOSA4LjQ0NDE0IDIuOTM4NDIgOC4wODk5N0MyLjc3MTc1IDcuNzE0OTcgMi42NzggNy4zMzk5NyAyLjY1NzE3IDYuOTY0OTdDMi42NTcxNyA2LjU2OTE0IDIuNzA5MjUgNi4xODM3MiAyLjgxMzQyIDUuODA4NzJDMi45Mzg0MiA1LjQzMzcyIDMuMTM2MzQgNS4wODk5NyAzLjQwNzE3IDQuNzc3NDdMMC4zNDQ2NjYgMS43NDYyMkMwLjE3Nzk5OSAxLjU3OTU1IDAuMDk0NjY1NSAxLjM5MjA1IDAuMDk0NjY1NSAxLjE4MzcyQzAuMDk0NjY1NSAwLjk3NTM5IDAuMTc3OTk5IDAuNzg3ODkgMC4zNDQ2NjYgMC42MjEyMjNDMC41MTEzMzMgMC40NTQ1NTcgMC42OTg4MzMgMC4zNzEyMjMgMC45MDcxNjYgMC4zNzEyMjNDMS4xMTU1IDAuMzcxMjIzIDEuMzAzIDAuNDU0NTU3IDEuNDY5NjcgMC42MjEyMjNMNC41MDA5MiAzLjY1MjQ3QzUuMTQ2NzUgMy4xMzE2NCA1Ljg3NTkyIDIuODkyMDUgNi42ODg0MiAyLjkzMzcyQzcuNTAwOTIgMi45NzUzOSA4LjIwOTI1IDMuMjk4MyA4LjgxMzQyIDMuOTAyNDdMMTIuNjU3MiA3LjcxNDk3QzEyLjk0ODkgOC4wMjc0NyAxMy4xNzggOC4zNzEyMiAxMy4zNDQ3IDguNzQ2MjJDMTMuNTExNCA5LjEwMDM5IDEzLjYwNTEgOS40NzUzOSAxMy42MjU5IDkuODcxMjJDMTMuNjQ2OCAxMC4yNDYyIDEzLjU5NDcgMTAuNjIxMiAxMy40Njk3IDEwLjk5NjJDMTMuMzQ0NyAxMS4zNzEyIDEzLjE1NzIgMTEuNzE1IDEyLjkwNzIgMTIuMDI3NEwxNS44NDQ3IDE0Ljk5NjJaTTQuNzUwOTIgNS42NTI0N0M0LjQzODQyIDUuOTY0OTcgNC4yODIxNyA2LjMzOTk3IDQuMjgyMTcgNi43Nzc0N0M0LjI4MjE3IDcuMTk0MTQgNC40Mzg0MiA3LjU1ODcyIDQuNzUwOTIgNy44NzEyMkw2LjA5NDY3IDkuMjQ2MjJMOC45Njk2NyA2LjM3MTIyTDcuNjI1OTIgNC45OTYyMkM3LjMxMzQyIDQuNjgzNzIgNi45Mzg0MiA0LjUyNzQ3IDYuNTAwOTIgNC41Mjc0N0M2LjA4NDI1IDQuNTI3NDcgNS43MDkyNSA0LjY4MzcyIDUuMzc1OTIgNC45OTYyMkw0Ljc1MDkyIDUuNjUyNDdaTTguNTk0NjcgMTEuNzE1QzguOTA3MTcgMTIuMDI3NCA5LjI3MTc1IDEyLjE4MzcgOS42ODg0MiAxMi4xODM3QzEwLjEyNTkgMTIuMTgzNyAxMC41MDA5IDEyLjAyNzQgMTAuODEzNSAxMS43MTVMMTEuNDY5NyAxMS4wOUMxMS43ODIyIDEwLjc1NjYgMTEuOTM4NSAxMC4zODE2IDExLjkzODUgOS45NjQ5N0MxMS45Mzg1IDkuNTI3NDcgMTEuNzgyMiA5LjE1MjQ3IDExLjQ2OTcgOC44Mzk5N0wxMC4wOTQ3IDcuNDk2MjJMNy4yMTk2NyAxMC4zNzEyTDguNTk0NjcgMTEuNzE1WiIvPiYjeGE7PGRlZnM+JiN4YTs8bGluZWFyR3JhZGllbnQgZ3JhZGllbnRVbml0cz0idXNlclNwYWNlT25Vc2UiIHkyPSIxMC4xNjM5IiB4Mj0iMTYuMjc2NCIgeTE9IjEuODczMzgiIHgxPSIyLjE2MjUyIiBpZD0icGFpbnQwX2xpbmVhcl83MjNfMTEiPiYjeGE7PHN0b3Agc3RvcC1jb2xvcj0iIzIzOTVGRiIvPiYjeGE7PHN0b3Agc3RvcC1jb2xvcj0iIzAwNTdEMiIgb2Zmc2V0PSIxIi8+JiN4YTs8L2xpbmVhckdyYWRpZW50PiYjeGE7PC9kZWZzPiYjeGE7PC9zdmc+;" parent="C4JjbqjRyMP2yy9lvFBD-423" vertex="1">
          <mxGeometry x="10.889999999999873" y="128.25" width="28" height="28" as="geometry" />
        </mxCell>
        <mxCell id="C4JjbqjRyMP2yy9lvFBD-431" value="&lt;span style=&quot;font-family: Helvetica; font-style: normal; font-variant-ligatures: normal; font-variant-caps: normal; letter-spacing: normal; orphans: 2; text-indent: 0px; text-transform: none; widows: 2; word-spacing: 0px; -webkit-text-stroke-width: 0px; text-decoration-thickness: initial; text-decoration-style: initial; text-decoration-color: initial; float: none; display: inline !important;&quot;&gt;&lt;font color=&quot;#556b82&quot; style=&quot;font-size: 11px;&quot;&gt;Cloud Connector&lt;/font&gt;&lt;/span&gt;" style="text;whiteSpace=wrap;html=1;align=left;" parent="C4JjbqjRyMP2yy9lvFBD-423" vertex="1">
          <mxGeometry x="38.88999999999987" y="128.46000000000004" width="96" height="24.74" as="geometry" />
        </mxCell>
        <mxCell id="C4JjbqjRyMP2yy9lvFBD-432" value="" style="group" parent="C4JjbqjRyMP2yy9lvFBD-388" vertex="1" connectable="0">
          <mxGeometry x="373.9999999999999" y="306" width="170" height="120" as="geometry" />
        </mxCell>
        <mxCell id="C4JjbqjRyMP2yy9lvFBD-433" value="" style="rounded=1;whiteSpace=wrap;html=1;strokeColor=#0070F2;strokeWidth=1.5;arcSize=16;fillColor=#FFFFFF;perimeterSpacing=0;absoluteArcSize=1;" parent="C4JjbqjRyMP2yy9lvFBD-432" vertex="1">
          <mxGeometry width="170.00000000000003" height="120" as="geometry" />
        </mxCell>
        <mxCell id="C4JjbqjRyMP2yy9lvFBD-434" value="" style="shape=image;verticalLabelPosition=bottom;labelBackgroundColor=default;verticalAlign=top;aspect=fixed;imageAspect=0;image=data:image/svg+xml,PHN2ZyB4bWxucz0iaHR0cDovL3d3dy53My5vcmcvMjAwMC9zdmciIGZpbGw9Im5vbmUiIHZpZXdCb3g9IjAgMCAxNyAxNiIgaGVpZ2h0PSIxNiIgd2lkdGg9IjE3Ij4mI3hhOzxnIGNsaXAtcGF0aD0idXJsKCNjbGlwMF84NDlfNSkiPiYjeGE7PHBhdGggZmlsbD0idXJsKCNwYWludDBfbGluZWFyXzg0OV81KSIgZD0iTTEzLjY2OTUgMUMxNC4zNTY1IDEgMTQuOTI5NSAxLjIzIDE1LjM4ODUgMS42ODhDMTUuODQ2NSAyLjE0NiAxNi4wNzU1IDIuNzE4IDE2LjA3NTUgMy40MDZWMTIuNjI1QzE2LjA4MDQgMTIuOTQyOCAxNi4wMjIgMTMuMjU4NCAxNS45MDM5IDEzLjU1MzVDMTUuNzg1OCAxMy44NDg2IDE1LjYxMDMgMTQuMTE3MyAxNS4zODc1IDE0LjM0NEMxNC45Mjk1IDE0LjgwMiAxNC4zNTc1IDE1LjAzMSAxMy42Njk1IDE1LjAzMUgyLjQ4MTQ5QzEuNzk0NDkgMTUuMDMxIDEuMjIxNDkgMTQuODAyIDAuNzYyNDkyIDE0LjM0NEMwLjUzOTg3NyAxNC4xMTcyIDAuMzY0NTE2IDEzLjg0ODUgMC4yNDY1ODMgMTMuNTUzNEMwLjEyODY1MSAxMy4yNTgzIDAuMDcwNDk1NCAxMi45NDI3IDAuMDc1NDkyIDEyLjYyNVYzLjQwNkMwLjA3NTQ5MiAyLjcxOSAwLjMwNTQ5MiAyLjE0NiAwLjc2MzQ5MiAxLjY4N0MxLjIyMDQ5IDEuMjMgMS43OTM0OSAxIDIuNDgwNDkgMUgxMy42Njk1Wk0xLjY2OTQ5IDQuMTg4SDE0LjQ4MTVWMy40MDZDMTQuNDgxNSAyLjg2NSAxNC4yMTE1IDIuNTk0IDEzLjY2OTUgMi41OTRIMi40ODE0OUMyLjI2MzA1IDIuNTkwMDEgMi4wNTEwNyAyLjY2ODE2IDEuODg3NDkgMi44MTNDMS43NDI0OSAyLjk1OCAxLjY2OTQ5IDMuMTU2IDEuNjY5NDkgMy40MDZWNC4xODdWNC4xODhaTTE0LjQ4MTUgNS44MTNIMS42Njk0OVYxMi42MjVDMS42Njk0OSAxMi44NTUgMS43NDI0OSAxMy4wNDIgMS44ODc0OSAxMy4xODhDMi4wNTEyMSAxMy4zMzI1IDIuMjYzMTggMTMuNDEwMyAyLjQ4MTQ5IDEzLjQwNkgxMy42Njk1QzE0LjIxMDUgMTMuNDA2IDE0LjQ4MTUgMTMuMTQ2IDE0LjQ4MTUgMTIuNjI1VjUuODEyVjUuODEzWiIvPiYjeGE7PC9nPiYjeGE7PGRlZnM+JiN4YTs8bGluZWFyR3JhZGllbnQgZ3JhZGllbnRVbml0cz0idXNlclNwYWNlT25Vc2UiIHkyPSIxMS4wOTE0IiB4Mj0iMTUuMjYzNCIgeTE9IjIuMzE5ODciIHgxPSIyLjE0MzEyIiBpZD0icGFpbnQwX2xpbmVhcl84NDlfNSI+JiN4YTs8c3RvcCBzdG9wLWNvbG9yPSIjMjM5NUZGIi8+JiN4YTs8c3RvcCBzdG9wLWNvbG9yPSIjMDA1N0QyIiBvZmZzZXQ9IjEiLz4mI3hhOzwvbGluZWFyR3JhZGllbnQ+JiN4YTs8Y2xpcFBhdGggaWQ9ImNsaXAwXzg0OV81Ij4mI3hhOzxyZWN0IHRyYW5zZm9ybT0idHJhbnNsYXRlKDAuMDc1NDM5NSkiIGZpbGw9IndoaXRlIiBoZWlnaHQ9IjE2IiB3aWR0aD0iMTYiLz4mI3hhOzwvY2xpcFBhdGg+JiN4YTs8L2RlZnM+JiN4YTs8L3N2Zz4=;" parent="C4JjbqjRyMP2yy9lvFBD-432" vertex="1">
          <mxGeometry x="71.00272727272716" y="28.998181818181763" width="28" height="26.34" as="geometry" />
        </mxCell>
        <mxCell id="C4JjbqjRyMP2yy9lvFBD-435" value="&lt;font color=&quot;#188918&quot; size=&quot;1&quot;&gt;&lt;b style=&quot;&quot;&gt;SAML2/OIDC&lt;/b&gt;&lt;/font&gt;" style="rounded=1;whiteSpace=wrap;html=1;arcSize=50;strokeColor=#188918;fillColor=#f5fae5;fontColor=#266f3a;strokeWidth=1.5;" parent="C4JjbqjRyMP2yy9lvFBD-388" vertex="1">
          <mxGeometry x="143" y="109" width="72" height="14.5" as="geometry" />
        </mxCell>
        <mxCell id="C4JjbqjRyMP2yy9lvFBD-436" value="" style="edgeStyle=orthogonalEdgeStyle;rounded=0;orthogonalLoop=1;jettySize=auto;html=1;fontSize=18;strokeColor=#188918;fontFamily=Helvetica;fontColor=default;targetPerimeterSpacing=15;endSize=4;startSize=4;endArrow=none;endFill=0;strokeWidth=1.5;startArrow=blockThin;startFill=1;entryX=0.008;entryY=0.438;entryDx=0;entryDy=0;entryPerimeter=0;exitX=0.972;exitY=0.596;exitDx=0;exitDy=0;exitPerimeter=0;" parent="C4JjbqjRyMP2yy9lvFBD-388" source="C4JjbqjRyMP2yy9lvFBD-422" target="C4JjbqjRyMP2yy9lvFBD-435" edge="1">
          <mxGeometry relative="1" as="geometry">
            <mxPoint x="132" y="-33.210000000000036" as="targetPoint" />
            <mxPoint x="-41" y="-32.210000000000036" as="sourcePoint" />
          </mxGeometry>
        </mxCell>
        <mxCell id="C4JjbqjRyMP2yy9lvFBD-437" value="" style="group" parent="C4JjbqjRyMP2yy9lvFBD-388" vertex="1" connectable="0">
          <mxGeometry x="39" y="245.0000000000001" width="99" height="171.10999999999996" as="geometry" />
        </mxCell>
        <mxCell id="C4JjbqjRyMP2yy9lvFBD-438" value="&lt;div style=&quot;&quot;&gt;&lt;span style=&quot;font-size: 10px;&quot;&gt;Mobile or Desktop&lt;/span&gt;&lt;/div&gt;" style="text;html=1;align=center;verticalAlign=middle;resizable=0;points=[];autosize=1;strokeColor=none;fillColor=none;fontSize=12;fontColor=#556B82;fontFamily=Helvetica;" parent="C4JjbqjRyMP2yy9lvFBD-437" vertex="1">
          <mxGeometry y="145.10999999999996" width="99" height="26" as="geometry" />
        </mxCell>
        <mxCell id="C4JjbqjRyMP2yy9lvFBD-439" value="" style="group" parent="C4JjbqjRyMP2yy9lvFBD-437" vertex="1" connectable="0">
          <mxGeometry x="6" width="87" height="157.6199999999999" as="geometry" />
        </mxCell>
        <mxCell id="C4JjbqjRyMP2yy9lvFBD-440" value="&lt;font color=&quot;#1d2d3e&quot; face=&quot;arial&quot; style=&quot;font-size: 12px;&quot;&gt;End User&lt;/font&gt;" style="text;html=1;align=center;verticalAlign=middle;resizable=0;points=[];autosize=1;strokeColor=none;fillColor=none;fontSize=12;fontColor=default;fontFamily=Helvetica;strokeWidth=1.5;" parent="C4JjbqjRyMP2yy9lvFBD-439" vertex="1">
          <mxGeometry x="9.5" y="26.1099999999999" width="68" height="26" as="geometry" />
        </mxCell>
        <mxCell id="C4JjbqjRyMP2yy9lvFBD-441" value="" style="endArrow=blockThin;html=1;strokeColor=#475E75;bendable=1;rounded=0;endFill=1;endSize=4;strokeWidth=1.5;startSize=4;exitX=0.495;exitY=1.098;exitDx=0;exitDy=0;exitPerimeter=0;entryX=0.5;entryY=0;entryDx=0;entryDy=0;entryPerimeter=0;" parent="C4JjbqjRyMP2yy9lvFBD-439" source="C4JjbqjRyMP2yy9lvFBD-440" target="C4JjbqjRyMP2yy9lvFBD-444" edge="1">
          <mxGeometry width="50" height="50" relative="1" as="geometry">
            <mxPoint x="43.5" y="23.1099999999999" as="sourcePoint" />
            <mxPoint x="42" y="92.1099999999999" as="targetPoint" />
            <Array as="points" />
          </mxGeometry>
        </mxCell>
        <mxCell id="C4JjbqjRyMP2yy9lvFBD-442" value="" style="shape=image;verticalLabelPosition=bottom;verticalAlign=top;imageAspect=0;aspect=fixed;image=data:image/svg+xml,PHN2ZyB4bWxucz0iaHR0cDovL3d3dy53My5vcmcvMjAwMC9zdmciIGZpbGw9Im5vbmUiIHZpZXdCb3g9IjAgMCAxNyAxNyIgaGVpZ2h0PSIxNyIgd2lkdGg9IjE3Ij4mI3hhOzxwYXRoIGZpbGw9InVybCgjcGFpbnQwX2xpbmVhcl8yXzI4Nzk4KSIgZD0iTTAuMjEzODY3IDguNTUyNzNDMC4yMTM4NjcgNy40Njk0IDAuNDIyMjAxIDYuNDU4OTggMC44Mzg4NjcgNS41MjE0OEMxLjI1NTUzIDQuNTYzMTUgMS44MTgwMyAzLjcyOTgyIDIuNTI2MzcgMy4wMjE0OEMzLjIzNDcgMi4zMTMxNSA0LjA2ODAzIDEuNzUwNjUgNS4wMjYzNyAxLjMzMzk4QzUuOTg0NyAwLjkxNzMxOCA3LjAwNTUzIDAuNzA4OTg0IDguMDg4ODcgMC43MDg5ODRDOS4xNzIyIDAuNzA4OTg0IDEwLjE4MjYgMC45MTczMTggMTEuMTIwMSAxLjMzMzk4QzEyLjA3ODUgMS43NTA2NSAxMi45MTE4IDIuMzEzMTUgMTMuNjIwMSAzLjAyMTQ4QzE0LjMyODUgMy43Mjk4MiAxNC44OTEgNC41NjMxNSAxNS4zMDc2IDUuNTIxNDhDMTUuNzI0MyA2LjQ1ODk4IDE1LjkzMjYgNy40Njk0IDE1LjkzMjYgOC41NTI3M0MxNS45MzI2IDkuNjM2MDcgMTUuNzI0MyAxMC42NTY5IDE1LjMwNzYgMTEuNjE1MkMxNC44OTEgMTIuNTczNiAxNC4zMjg1IDEzLjQwNjkgMTMuNjIwMSAxNC4xMTUyQzEyLjkxMTggMTQuODIzNiAxMi4wNzg1IDE1LjM4NjEgMTEuMTIwMSAxNS44MDI3QzEwLjE4MjYgMTYuMjE5NCA5LjE3MjIgMTYuNDI3NyA4LjA4ODg3IDE2LjQyNzdDNy4wMDU1MyAxNi40Mjc3IDUuOTg0NyAxNi4yMTk0IDUuMDI2MzcgMTUuODAyN0M0LjA2ODAzIDE1LjM4NjEgMy4yMzQ3IDE0LjgyMzYgMi41MjYzNyAxNC4xMTUyQzEuODE4MDMgMTMuNDA2OSAxLjI1NTUzIDEyLjU3MzYgMC44Mzg4NjcgMTEuNjE1MkMwLjQyMjIwMSAxMC42NTY5IDAuMjEzODY3IDkuNjM2MDcgMC4yMTM4NjcgOC41NTI3M1pNOS42NTEzNyAxMC45Mjc3QzEwLjMxOCAxMC45Mjc3IDEwLjkzMjYgMTEuMDg0IDExLjQ5NTEgMTEuMzk2NUMxMi4wNTc2IDExLjY4ODIgMTIuNTE2IDEyLjA5NDQgMTIuODcwMSAxMi42MTUyQzEzLjM0OTMgMTIuMDczNiAxMy43MTM5IDExLjQ1OSAxMy45NjM5IDEwLjc3MTVDMTQuMjM0NyAxMC4wODQgMTQuMzcwMSA5LjM0NDQgMTQuMzcwMSA4LjU1MjczQzE0LjM3MDEgNy42Nzc3MyAxNC4yMDM1IDYuODY1MjMgMTMuODcwMSA2LjExNTIzQzEzLjUzNjggNS4zNDQ0IDEzLjA4ODkgNC42Nzc3MyAxMi41MjY0IDQuMTE1MjNDMTEuOTYzOSAzLjU1MjczIDExLjI5NzIgMy4xMDQ4MiAxMC41MjY0IDIuNzcxNDhDOS43NzYzNyAyLjQzODE1IDguOTYzODcgMi4yNzE0OCA4LjA4ODg3IDIuMjcxNDhDNy4yMTM4NyAyLjI3MTQ4IDYuMzkwOTUgMi40MzgxNSA1LjYyMDEyIDIuNzcxNDhDNC44NzAxMiAzLjEwNDgyIDQuMjAzNDUgMy41NTI3MyAzLjYyMDEyIDQuMTE1MjNDMy4wNTc2MiA0LjY3NzczIDIuNjA5NyA1LjM0NDQgMi4yNzYzNyA2LjExNTIzQzEuOTQzMDMgNi44NjUyMyAxLjc3NjM3IDcuNjc3NzMgMS43NzYzNyA4LjU1MjczQzEuNzc2MzcgOS4zNDQ0IDEuOTAxMzcgMTAuMDg0IDIuMTUxMzcgMTAuNzcxNUMyLjQyMjIgMTEuNDU5IDIuNzk3MiAxMi4wNzM2IDMuMjc2MzcgMTIuNjE1MkMzLjYzMDUzIDEyLjA5NDQgNC4wODg4NyAxMS42ODgyIDQuNjUxMzcgMTEuMzk2NUM1LjIxMzg3IDExLjA4NCA1LjgyODQ1IDEwLjkyNzcgNi40OTUxMiAxMC45Mjc3SDkuNjUxMzdaTTExLjIxMzkgNi45OTAyM0MxMS4yMTM5IDcuNDI3NzMgMTEuMTMwNSA3Ljg0NDQgMTAuOTYzOSA4LjI0MDIzQzEwLjc5NzIgOC42MTUyMyAxMC41NjggOC45NDg1NyAxMC4yNzY0IDkuMjQwMjNDMTAuMDA1NSA5LjUxMTA3IDkuNjgyNjIgOS43Mjk4MiA5LjMwNzYyIDkuODk2NDhDOC45MzI2MiAxMC4wNjMyIDguNTI2MzcgMTAuMTQ2NSA4LjA4ODg3IDEwLjE0NjVDNy42NTEzNyAxMC4xNDY1IDcuMjM0NyAxMC4wNjMyIDYuODM4ODcgOS44OTY0OEM2LjQ2Mzg3IDkuNzI5ODIgNi4xMzA1MyA5LjUxMTA3IDUuODM4ODcgOS4yNDAyM0M1LjU2ODAzIDguOTQ4NTcgNS4zNDkyOCA4LjYxNTIzIDUuMTgyNjIgOC4yNDAyM0M1LjAxNTk1IDcuODQ0NCA0LjkzMjYyIDcuNDI3NzMgNC45MzI2MiA2Ljk5MDIzQzQuOTMyNjIgNi41NTI3MyA1LjAxNTk1IDYuMTQ2NDggNS4xODI2MiA1Ljc3MTQ4QzUuMzQ5MjggNS4zOTY0OCA1LjU2ODAzIDUuMDYzMTUgNS44Mzg4NyA0Ljc3MTQ4QzYuMTMwNTMgNC40Nzk4MiA2LjQ2Mzg3IDQuMjUwNjUgNi44Mzg4NyA0LjA4Mzk4QzcuMjM0NyAzLjkxNzMyIDcuNjUxMzcgMy44MzM5OCA4LjA4ODg3IDMuODMzOThDOC41MjYzNyAzLjgzMzk4IDguOTMyNjIgMy45MTczMiA5LjMwNzYyIDQuMDgzOThDOS42ODI2MiA0LjI1MDY1IDEwLjAwNTUgNC40Nzk4MiAxMC4yNzY0IDQuNzcxNDhDMTAuNTY4IDUuMDYzMTUgMTAuNzk3MiA1LjM5NjQ4IDEwLjk2MzkgNS43NzE0OEMxMS4xMzA1IDYuMTQ2NDggMTEuMjEzOSA2LjU1MjczIDExLjIxMzkgNi45OTAyM1pNOS42NTEzNyA2Ljk5MDIzQzkuNjUxMzcgNi41NTI3MyA5LjQ5NTEyIDYuMTg4MTUgOS4xODI2MiA1Ljg5NjQ4QzguODcwMTIgNS41ODM5OCA4LjUwNTUzIDUuNDI3NzMgOC4wODg4NyA1LjQyNzczQzcuNjUxMzcgNS40Mjc3MyA3LjI3NjM3IDUuNTgzOTggNi45NjM4NyA1Ljg5NjQ4QzYuNjUxMzcgNi4xODgxNSA2LjQ5NTEyIDYuNTUyNzMgNi40OTUxMiA2Ljk5MDIzQzYuNDk1MTIgNy40Mjc3MyA2LjY1MTM3IDcuODAyNzMgNi45NjM4NyA4LjExNTIzQzcuMjc2MzcgOC40MDY5IDcuNjUxMzcgOC41NTI3MyA4LjA4ODg3IDguNTUyNzNDOC41MDU1MyA4LjU1MjczIDguODcwMTIgOC40MDY5IDkuMTgyNjIgOC4xMTUyM0M5LjQ5NTEyIDcuODAyNzMgOS42NTEzNyA3LjQyNzczIDkuNjUxMzcgNi45OTAyM1pNNC40NjM4NyAxMy43MDlDNC45NjM4NyAxNC4wNjMyIDUuNTE1OTUgMTQuMzQ0NCA2LjEyMDEyIDE0LjU1MjdDNi43NDUxMiAxNC43NjExIDcuNDAxMzcgMTQuODY1MiA4LjA4ODg3IDE0Ljg2NTJDOC43NTU1MyAxNC44NjUyIDkuMzkwOTUgMTQuNzYxMSA5Ljk5NTEyIDE0LjU1MjdDMTAuNjIwMSAxNC4zNDQ0IDExLjE4MjYgMTQuMDYzMiAxMS42ODI2IDEzLjcwOUMxMS40NzQzIDEzLjMzNCAxMS4xODI2IDEzLjA0MjMgMTAuODA3NiAxMi44MzRDMTAuNDUzNSAxMi42MDQ4IDEwLjA2OCAxMi40OTAyIDkuNjUxMzcgMTIuNDkwMkg2LjQ5NTEyQzYuMDc4NDUgMTIuNDkwMiA1LjY4MjYyIDEyLjYwNDggNS4zMDc2MiAxMi44MzRDNC45NTM0NSAxMy4wNDIzIDQuNjcyMiAxMy4zMzQgNC40NjM4NyAxMy43MDlaIi8+JiN4YTs8ZGVmcz4mI3hhOzxsaW5lYXJHcmFkaWVudCBncmFkaWVudFVuaXRzPSJ1c2VyU3BhY2VPblVzZSIgeTI9IjE2LjQyNzciIHgyPSI4LjA3MzI0IiB5MT0iMC43MDg5ODQiIHgxPSI4LjA3MzI0IiBpZD0icGFpbnQwX2xpbmVhcl8yXzI4Nzk4Ij4mI3hhOzxzdG9wIHN0b3AtY29sb3I9IiM1QjczOEIiLz4mI3hhOzxzdG9wIHN0b3AtY29sb3I9IiMyMjM1NDgiIG9mZnNldD0iMSIvPiYjeGE7PC9saW5lYXJHcmFkaWVudD4mI3hhOzwvZGVmcz4mI3hhOzwvc3ZnPg==;strokeWidth=1.5;" parent="C4JjbqjRyMP2yy9lvFBD-439" vertex="1">
          <mxGeometry x="29.5" width="28" height="28" as="geometry" />
        </mxCell>
        <mxCell id="C4JjbqjRyMP2yy9lvFBD-443" value="&lt;font color=&quot;#1d2d3e&quot; face=&quot;arial&quot; style=&quot;font-size: 14px;&quot;&gt;&lt;span style=&quot;&quot;&gt;Application &lt;br&gt;Clients&lt;/span&gt;&lt;/font&gt;" style="text;html=1;align=center;verticalAlign=middle;resizable=0;points=[];autosize=1;strokeColor=none;fillColor=none;fontSize=12;fontColor=default;fontFamily=Helvetica;strokeWidth=1.5;" parent="C4JjbqjRyMP2yy9lvFBD-439" vertex="1">
          <mxGeometry y="111.61999999999989" width="87" height="46" as="geometry" />
        </mxCell>
        <mxCell id="C4JjbqjRyMP2yy9lvFBD-444" value="" style="shape=image;verticalLabelPosition=bottom;verticalAlign=top;imageAspect=0;aspect=fixed;image=data:image/svg+xml,PHN2ZyB4bWxucz0iaHR0cDovL3d3dy53My5vcmcvMjAwMC9zdmciIGZpbGw9Im5vbmUiIHZpZXdCb3g9IjAgMCAxNyAxNyIgaGVpZ2h0PSIxNyIgd2lkdGg9IjE3Ij4mI3hhOzxnIGNsaXAtcGF0aD0idXJsKCNjbGlwMF8yXzI4NzkzKSI+JiN4YTs8cGF0aCBmaWxsPSJ1cmwoI3BhaW50MF9saW5lYXJfMl8yODc5MykiIGQ9Ik04Ljg4ODg3IDExLjI5MTRDOC44ODg4NyAxMS43MzE0IDguNTI4ODcgMTIuMDkxNCA4LjA4ODg3IDEyLjA5MTRINy4yODg4N1YxMy42MzU0SDguMDg4ODdDOC41Mjg4NyAxMy42MzU0IDguODg4ODcgMTMuOTk1NCA4Ljg4ODg3IDE0LjQzNTRDOC44ODg4NyAxNC44NzU0IDguNTI4ODcgMTUuMjM1NCA4LjA4ODg3IDE1LjIzNTRINC4wODg4N0MzLjY0ODg3IDE1LjIzNTQgMy4yODg4NyAxNC44NzU0IDMuMjg4ODcgMTQuNDM1NEMzLjI4ODg3IDEzLjk5NTQgMy42NDg4NyAxMy42MzU0IDQuMDg4ODcgMTMuNjM1NEg1LjY4ODg3VjEyLjA5MTRIMi40ODg4N0MxLjE2ODg3IDEyLjA5MTQgMC4wODg4NjcyIDExLjA3NTQgMC4wODg4NjcyIDkuODI3NFYzLjk1NTRDMC4wODg4NjcyIDIuNzA3NCAxLjE2ODg3IDEuNjgzNCAyLjQ4ODg3IDEuNjk5NEgxMS4yODg5QzEyLjYwODkgMS42OTk0IDEzLjY4ODkgMi43MTU0IDEzLjY4ODkgMy45NjM0QzEzLjY4ODkgNC40MDM0IDEzLjMyODkgNC43Nzk0IDEyLjg4ODkgNC43Nzk0QzEyLjQ0ODkgNC43Nzk0IDEyLjA4ODkgNC40MzU0IDEyLjA4ODkgMy45OTU0QzEyLjA4ODkgMy41ODc0IDExLjcyODkgMy4yOTE0IDExLjI4ODkgMy4yOTE0SDIuNDg4ODdDMi4wNDg4NyAzLjI5MTQgMS42ODg4NyAzLjU4NzQgMS42ODg4NyAzLjk1NTRWOS44Mjc0QzEuNjg4ODcgMTAuMTk1NCAyLjA0ODg3IDEwLjQ5MTQgMi40ODg4NyAxMC40OTE0SDguMDg4ODdDOC41Mjg4NyAxMC40OTE0IDguODg4ODcgMTAuODUxNCA4Ljg4ODg3IDExLjI5MTRaTTkuNjg4ODcgNy40MDMzOUM5LjY4ODg3IDYuMjk5MzkgMTAuNTg0OSA1LjQwMzM5IDExLjY4ODkgNS40MDMzOUgxNC4wODg5QzE1LjE5MjkgNS40MDMzOSAxNi4wODg5IDYuMjk5MzkgMTYuMDg4OSA3LjQwMzM5VjEzLjIzNTRDMTYuMDg4OSAxNC4zMzk0IDE1LjE5MjkgMTUuMjM1NCAxNC4wODg5IDE1LjIzNTRIMTEuNjg4OUMxMC41ODQ5IDE1LjIzNTQgOS42ODg4NyAxNC4zMzk0IDkuNjg4ODcgMTMuMjM1NFY3LjQwMzM5Wk0xNC4wODg5IDEzLjYzNTRDMTQuMzEyOSAxMy42MzU0IDE0LjQ4ODkgMTMuNDU5NCAxNC40ODg5IDEzLjIzNTRWNy40MDMzOUMxNC40ODg5IDcuMTc5MzkgMTQuMzEyOSA3LjAwMzM5IDE0LjA4ODkgNy4wMDMzOUgxMS42ODg5QzExLjQ2NDkgNy4wMDMzOSAxMS4yODg5IDcuMTc5MzkgMTEuMjg4OSA3LjQwMzM5VjEzLjIzNTRDMTEuMjg4OSAxMy40NTk0IDExLjQ2NDkgMTMuNjM1NCAxMS42ODg5IDEzLjYzNTRIMTQuMDg4OVoiIGNsaXAtcnVsZT0iZXZlbm9kZCIgZmlsbC1ydWxlPSJldmVub2RkIi8+JiN4YTs8L2c+JiN4YTs8ZGVmcz4mI3hhOzxsaW5lYXJHcmFkaWVudCBncmFkaWVudFVuaXRzPSJ1c2VyU3BhY2VPblVzZSIgeTI9IjE1LjIzNTQiIHgyPSI4LjA4ODg3IiB5MT0iMS42OTkyMiIgeDE9IjguMDg4ODciIGlkPSJwYWludDBfbGluZWFyXzJfMjg3OTMiPiYjeGE7PHN0b3Agc3RvcC1jb2xvcj0iIzVCNzM4QiIvPiYjeGE7PHN0b3Agc3RvcC1jb2xvcj0iIzIyMzU0OCIgb2Zmc2V0PSIxIi8+JiN4YTs8L2xpbmVhckdyYWRpZW50PiYjeGE7PGNsaXBQYXRoIGlkPSJjbGlwMF8yXzI4NzkzIj4mI3hhOzxyZWN0IHRyYW5zZm9ybT0idHJhbnNsYXRlKDAuMDg4ODY3MiAwLjQ1ODk4NCkiIGZpbGw9IndoaXRlIiBoZWlnaHQ9IjE2IiB3aWR0aD0iMTYiLz4mI3hhOzwvY2xpcFBhdGg+JiN4YTs8L2RlZnM+JiN4YTs8L3N2Zz4=;strokeWidth=1.5;points=[[0,0.25,0,0,0],[0,0.5,0,0,0],[0,0.75,0,0,0],[0.25,0,0,0,0],[0.25,1,0,0,0],[0.5,0,0,0,0],[0.5,1,0,0,0],[0.75,0,0,0,0],[0.75,1,0,0,0],[1,0.25,0,0,0],[1,0.5,0,0,0],[1,0.75,0,0,0]];" parent="C4JjbqjRyMP2yy9lvFBD-439" vertex="1">
          <mxGeometry x="29.5" y="88.1099999999999" width="28" height="28" as="geometry" />
        </mxCell>
        <mxCell id="C4JjbqjRyMP2yy9lvFBD-445" value="" style="endArrow=blockThin;html=1;strokeColor=#188918;bendable=1;rounded=0;endFill=1;endSize=4;strokeWidth=1.5;edgeStyle=orthogonalEdgeStyle;entryX=0.97;entryY=0.484;entryDx=0;entryDy=0;entryPerimeter=0;startSize=4;" parent="C4JjbqjRyMP2yy9lvFBD-388" source="C4JjbqjRyMP2yy9lvFBD-413" target="C4JjbqjRyMP2yy9lvFBD-444" edge="1">
          <mxGeometry width="50" height="50" relative="1" as="geometry">
            <mxPoint x="131" y="285" as="sourcePoint" />
            <mxPoint x="64" y="222" as="targetPoint" />
          </mxGeometry>
        </mxCell>
        <mxCell id="C4JjbqjRyMP2yy9lvFBD-446" style="edgeStyle=orthogonalEdgeStyle;rounded=0;orthogonalLoop=1;jettySize=auto;html=1;fontSize=18;strokeColor=#188918;fontFamily=Helvetica;fontColor=default;targetPerimeterSpacing=15;endSize=4;startSize=4;endArrow=blockThin;endFill=1;strokeWidth=1.5;startArrow=blockThin;startFill=1;exitX=0.55;exitY=1;exitDx=0;exitDy=0;exitPerimeter=0;" parent="C4JjbqjRyMP2yy9lvFBD-388" source="C4JjbqjRyMP2yy9lvFBD-403" edge="1">
          <mxGeometry relative="1" as="geometry">
            <mxPoint x="676" y="456" as="targetPoint" />
            <mxPoint x="683" y="329.25" as="sourcePoint" />
            <Array as="points">
              <mxPoint x="283" y="477" />
              <mxPoint x="676" y="477" />
            </Array>
          </mxGeometry>
        </mxCell>
        <mxCell id="C4JjbqjRyMP2yy9lvFBD-447" value="&lt;b style=&quot;border-color: var(--border-color); font-size: x-small;&quot;&gt;&lt;font color=&quot;#188918&quot;&gt;X.509 for SAP GUI&lt;/font&gt;&lt;/b&gt;" style="rounded=1;whiteSpace=wrap;html=1;arcSize=50;strokeColor=#188918;fillColor=#f5fae5;fontColor=#266f3a;strokeWidth=1.5;" parent="C4JjbqjRyMP2yy9lvFBD-388" vertex="1">
          <mxGeometry x="224.04999999999995" y="453.21" width="101" height="16" as="geometry" />
        </mxCell>
        <mxCell id="C4JjbqjRyMP2yy9lvFBD-448" value="&lt;font style=&quot;font-size: 12px;&quot; color=&quot;#1d2d3e&quot;&gt;SAP BTP Application&lt;/font&gt;" style="text;whiteSpace=wrap;html=1;align=center;" parent="C4JjbqjRyMP2yy9lvFBD-388" vertex="1">
          <mxGeometry x="391" y="369" width="133.92" height="45.56" as="geometry" />
        </mxCell>
        <UserObject label="&lt;span style=&quot;color: rgb(85, 107, 130); font-family: arial; font-size: x-small;&quot;&gt;multiple data flows&lt;/span&gt;" placeholders="1" name="Variable" id="rOjPoS-bW15GpWFUcOlB-0">
          <mxCell style="text;html=1;strokeColor=none;fillColor=none;align=left;verticalAlign=middle;whiteSpace=wrap;overflow=hidden;fontColor=#1D2D3E;" parent="C4JjbqjRyMP2yy9lvFBD-388" vertex="1">
            <mxGeometry x="262" y="283" width="91" height="18" as="geometry" />
          </mxCell>
        </UserObject>
        <mxCell id="C4JjbqjRyMP2yy9lvFBD-512" value="" style="group" parent="WXxtYBOuJOK_NInGcJ7v-1" vertex="1" connectable="0">
          <mxGeometry x="-1510" y="-941" width="323" height="95.75" as="geometry" />
        </mxCell>
        <mxCell id="WXxtYBOuJOK_NInGcJ7v-128" value="" style="rounded=0;whiteSpace=wrap;html=1;strokeColor=#eaecee;strokeWidth=1.5;arcSize=16;fillColor=#FFFFFF;perimeterSpacing=0;imageHeight=24;absoluteArcSize=1;points=[];connectable=0;container=0;" parent="C4JjbqjRyMP2yy9lvFBD-512" vertex="1">
          <mxGeometry width="323" height="95.75" as="geometry" />
        </mxCell>
        <mxCell id="WXxtYBOuJOK_NInGcJ7v-129" value="&lt;font size=&quot;1&quot; style=&quot;&quot; face=&quot;arial&quot; color=&quot;#1d2d3e&quot;&gt;&lt;b style=&quot;font-size: 12px;&quot;&gt;Legend&lt;/b&gt;&lt;/font&gt;" style="text;html=1;align=left;verticalAlign=top;resizable=0;points=[];autosize=1;strokeColor=none;fillColor=none;fontSize=12;fontColor=default;fontFamily=Helvetica;" parent="C4JjbqjRyMP2yy9lvFBD-512" vertex="1">
          <mxGeometry x="20.9982051282052" y="9" width="61" height="26" as="geometry" />
        </mxCell>
        <mxCell id="WXxtYBOuJOK_NInGcJ7v-130" value="&lt;div style=&quot;font-size: 10px; line-height: 100%;&quot;&gt;&lt;span style=&quot;font-family: arial; font-size: 10px; background-color: initial;&quot;&gt;&lt;font style=&quot;font-size: 10px;&quot;&gt;Access&lt;/font&gt;&lt;/span&gt;&lt;/div&gt;" style="text;html=1;align=left;verticalAlign=middle;resizable=0;points=[];autosize=1;strokeColor=none;fillColor=none;fontSize=10;fontColor=#1D2D3E;fontFamily=Helvetica;labelPosition=center;verticalLabelPosition=middle;" parent="C4JjbqjRyMP2yy9lvFBD-512" vertex="1">
          <mxGeometry x="39.86999999999989" y="59.75" width="50" height="23" as="geometry" />
        </mxCell>
        <mxCell id="WXxtYBOuJOK_NInGcJ7v-131" value="" style="ellipse;whiteSpace=wrap;html=1;aspect=fixed;strokeColor=none;fillColor=#475E75;fontColor=#475E75;" parent="C4JjbqjRyMP2yy9lvFBD-512" vertex="1">
          <mxGeometry x="20.36999999999989" y="64.25" width="16" height="16" as="geometry" />
        </mxCell>
        <mxCell id="WXxtYBOuJOK_NInGcJ7v-132" value="" style="ellipse;whiteSpace=wrap;html=1;aspect=fixed;strokeColor=none;fillColor=#188918;" parent="C4JjbqjRyMP2yy9lvFBD-512" vertex="1">
          <mxGeometry x="21" y="41.25" width="16" height="16" as="geometry" />
        </mxCell>
        <mxCell id="WXxtYBOuJOK_NInGcJ7v-133" value="&lt;div style=&quot;font-size: 10px; line-height: 100%;&quot;&gt;&lt;span style=&quot;font-family: arial; font-size: 10px; background-color: initial;&quot;&gt;&lt;font style=&quot;font-size: 10px;&quot;&gt;Authentication&lt;/font&gt;&lt;/span&gt;&lt;/div&gt;" style="text;html=1;align=left;verticalAlign=middle;resizable=0;points=[];autosize=1;strokeColor=none;fillColor=none;fontSize=10;fontColor=#1D2D3E;fontFamily=Helvetica;labelPosition=center;verticalLabelPosition=middle;" parent="C4JjbqjRyMP2yy9lvFBD-512" vertex="1">
          <mxGeometry x="39.5" y="36.75" width="81" height="23" as="geometry" />
        </mxCell>
        <mxCell id="WXxtYBOuJOK_NInGcJ7v-138" value="&lt;div style=&quot;font-size: 10px; line-height: 100%;&quot;&gt;&lt;span style=&quot;font-family: arial; font-size: 10px; background-color: initial;&quot;&gt;&lt;font style=&quot;font-size: 10px;&quot;&gt;Application&lt;/font&gt;&lt;/span&gt;&lt;/div&gt;" style="text;html=1;align=left;verticalAlign=middle;resizable=0;points=[];autosize=1;strokeColor=none;fillColor=none;fontSize=10;fontColor=#1D2D3E;fontFamily=Helvetica;labelPosition=center;verticalLabelPosition=middle;" parent="C4JjbqjRyMP2yy9lvFBD-512" vertex="1">
          <mxGeometry x="141.33999999999992" y="57.75" width="67" height="23" as="geometry" />
        </mxCell>
        <mxCell id="WXxtYBOuJOK_NInGcJ7v-148" value="" style="shape=image;verticalLabelPosition=bottom;verticalAlign=top;imageAspect=0;aspect=fixed;image=data:image/svg+xml,PHN2ZyB4bWxucz0iaHR0cDovL3d3dy53My5vcmcvMjAwMC9zdmciIGZpbGw9Im5vbmUiIHZpZXdCb3g9IjAgMCA0OSA0OSIgaGVpZ2h0PSI0OSIgd2lkdGg9IjQ5Ij4mI3hhOzxjaXJjbGUgc3Ryb2tlLXdpZHRoPSIwLjg1NzE0MyIgc3Ryb2tlPSIjRDVEQUREIiBmaWxsPSJ1cmwoI3BhaW50MF9saW5lYXJfMjYyMl8yMDQ3NSkiIHI9IjIzLjU3MTQiIGN5PSIyNC4wMzQ5IiBjeD0iMjQuNSIvPiYjeGE7PHBhdGggZmlsbD0idXJsKCNwYWludDFfcmFkaWFsXzI2MjJfMjA0NzUpIiBkPSJNMjQuMzkzMSAxMi4yMzcxQzIwLjExMDcgMTIuMjM3MSAxNy4wNjgxIDE1LjcyMzEgMTYuNTYxMSAxOS4zNjI1QzE1LjE4MzYgMTkuNDQ0NCAxMy45NjcyIDE5Ljk2MjEgMTMuMDIyNSAyMC44MzE3QzExLjc0NDUgMjIuMDA4MSAxMS4wODQ0IDIzLjcxNTYgMTEuMDg0NCAyNS41MTYzQzExLjA4NDQgMjcuMTg5NyAxMS41OTIgMjguNzcxNSAxMi43MzE2IDI5Ljk0MDlDMTMuNTg2MSAzMC44MTc4IDE0LjcwNzcgMzEuMzcyNCAxNi4wMTcgMzEuNTk4NEMxNi4xMzc2IDMxLjM1MzUgMTYuMjczNSAzMS4xMTY4IDE2LjQyNTIgMzAuODg5MkwxNi40NDEgMzAuODY1NUwxNi40NTQ4IDMwLjg0NjFDMTYuNzA2OSAzMC40OTAxIDE2Ljk5NDggMzAuMTY2IDE3LjMxNjkgMjkuODc2MUMxNy4xODMxIDI5LjQzMTcgMTcuMTE4IDI4Ljk2NDUgMTcuMTE4IDI4LjQ4MzVDMTcuMTE4IDI3Ljg1NDkgMTcuMjM4NiAyNy4yNDEzIDE3LjQ4NDkgMjYuNjU5MkMxNy43MiAyNi4xMDMzIDE4LjA1MTMgMjUuNjAwMSAxOC40ODI0IDI1LjE2OTFDMTguOTE4IDI0LjczMzQgMTkuNDI1IDI0LjM5MTYgMTkuOTkyNiAyNC4xNTE1QzIwLjU3NDcgMjMuOTA1MiAyMS4xODgyIDIzLjc4NDYgMjEuODE2OCAyMy43ODQ2QzIyLjA3NTkgMjMuNzg0NiAyMi4zMzI0IDIzLjgwNTEgMjIuNTg1MyAyMy44NDY0QzIyLjkwNjUgMjMuNjE3OSAyMy4yNTIyIDIzLjQyNTEgMjMuNjIwNCAyMy4yNjkzQzI0LjI4NTEgMjIuOTg4MSAyNC45ODYzIDIyLjg0OTcgMjUuNzA4OSAyMi44NDk3QzI2LjQzMTYgMjIuODQ5NyAyNy4xMzI3IDIyLjk4ODEgMjcuNzk3NSAyMy4yNjkzQzI4LjQ0MzYgMjMuNTQyNyAyOS4wMTc2IDIzLjkzMjYgMjkuNTA0MyAyNC40MzY1QzMwLjAwODIgMjQuOTIzMiAzMC4zOTgxIDI1LjQ5NzIgMzAuNjcxNSAyNi4xNDMzQzMwLjk1MjcgMjYuODA4MSAzMS4wOTExIDI3LjUwOTMgMzEuMDkxMSAyOC4yMzE5QzMxLjA5MTEgMjguOTI1MiAzMC45NjM3IDI5LjU5ODggMzAuNzA1IDMwLjIzOTVDMzEuMTk2OSAzMC42Mjg4IDMxLjYzNDYgMzEuMDg3NyAzMi4wMTUyIDMxLjYxMjdDMzUuMjc5MiAzMS4wNDI2IDM3Ljk5OTkgMjguMzY4IDM3Ljk5OTkgMjQuMzU5MUMzNy45OTk5IDIwLjM3NTEgMzUuMTUyNiAxNy4zMTM1IDMxLjcyNDcgMTYuOTg5N0MzMC4zNTA3IDE0LjE0ODMgMjcuOCAxMi4yMzcxIDI0LjM5MzEgMTIuMjM3MVoiIGNsaXAtcnVsZT0iZXZlbm9kZCIgZmlsbC1ydWxlPSJldmVub2RkIi8+JiN4YTs8cGF0aCBmaWxsPSJ1cmwoI3BhaW50Ml9yYWRpYWxfMjYyMl8yMDQ3NSkiIGQ9Ik0yOC4zMzY4IDMwLjgwNzhDMjkuMzA4MiAzMS4xODk0IDMwLjA5NzQgMzEuODEzOCAzMC43MDQ1IDMyLjY4MTFDMzEuMzExNiAzMy41NDg0IDMxLjYxNTIgMzQuNTI4NSAzMS42MTUyIDM1LjYyMTNWMzcuMTA0NEMzMS42MTUyIDM3LjMxMjUgMzEuNTM3MSAzNy40ODYgMzEuMzgxIDM3LjYyNDdDMzEuMjQyMiAzNy43NjM1IDMxLjA3NzQgMzcuODMyOSAzMC44ODY2IDM3LjgzMjlIMjkuNDAzNkMyOS4xOTU0IDM3LjgzMjkgMjkuMDEzMyAzNy43NjM1IDI4Ljg1NzIgMzcuNjI0N0MyOC43MTg0IDM3LjQ4NiAyOC42NDkgMzcuMzEyNSAyOC42NDkgMzcuMTA0NEMyOC42NDkgMzYuODk2MiAyOC43MTg0IDM2LjcyMjcgMjguODU3MiAzNi41ODRDMjkuMDEzMyAzNi40Mjc5IDI5LjE5NTQgMzYuMzQ5OCAyOS40MDM2IDM2LjM0OThIMzAuMTMyMVYzNS42MjEzQzMwLjEzMjEgMzUuMTE4MiAzMC4wMzY3IDM0LjY0MTIgMjkuODQ1OSAzNC4xOTAyQzI5LjY1NTEgMzMuNzM5MiAyOS4zODYyIDMzLjM0OSAyOS4wMzkzIDMzLjAxOTRDMjguNzA5NyAzMi42NzI1IDI4LjMxOTUgMzIuNDAzNiAyNy44Njg1IDMyLjIxMjhDMjcuNDM0OCAzMi4wMjIgMjYuOTU3OCAzMS45MjY2IDI2LjQzNzUgMzEuOTI2NkgyNC45ODA0QzI0LjQ2IDMxLjkyNjYgMjMuOTc0NCAzMi4wMjIgMjMuNTIzNCAzMi4yMTI4QzIzLjA4OTcgMzIuNDAzNiAyMi42OTk0IDMyLjY3MjUgMjIuMzUyNSAzMy4wMTk0QzIyLjAyMyAzMy4zNDkgMjEuNzYyOCAzMy43MzkyIDIxLjU3MiAzNC4xOTAyQzIxLjM4MTIgMzQuNjQxMiAyMS4yODU4IDM1LjExODIgMjEuMjg1OCAzNS42MjEzVjM2LjM0OThIMjIuMDE0M0MyMi4yMjI0IDM2LjM0OTggMjIuMzk1OSAzNi40Mjc5IDIyLjUzNDcgMzYuNTg0QzIyLjY3MzQgMzYuNzIyNyAyMi43NDI4IDM2Ljg5NjIgMjIuNzQyOCAzNy4xMDQ0QzIyLjc0MjggMzcuMzEyNSAyMi42NzM0IDM3LjQ4NiAyMi41MzQ3IDM3LjYyNDdDMjIuMzk1OSAzNy43NjM1IDIyLjIyMjQgMzcuODMyOSAyMi4wMTQzIDM3LjgzMjlIMjAuNTMxMkMyMC4zNDA0IDM3LjgzMjkgMjAuMTY3IDM3Ljc2MzUgMjAuMDEwOSAzNy42MjQ3QzE5Ljg3MjEgMzcuNDg2IDE5LjgwMjcgMzcuMzEyNSAxOS44MDI3IDM3LjEwNDRMMTkuODAyNyAzNi4wNTAySDE3LjgyMzRDMTcuNjMyOCAzNi4wNTAyIDE3LjQ2MTYgMzUuOTc5NSAxNy4zMTQ2IDM1Ljg0ODhMMTcuMzA3NSAzNS44NDI1QzE3LjE2ODEgMzUuNzAzMSAxNy4wOTk4IDM1LjUyNzEgMTcuMDk5OCAzNS4zMjY1VjM0LjE4MjdDMTcuMDk5OCAzMy43MzkyIDE3LjE2MjEgMzMuMzIxIDE3LjI4ODEgMzIuOTI5MUwxNy4yODkyIDMyLjkyNTlDMTcuNDI3MiAzMi41MjU2IDE3LjYwNzEgMzIuMTU4NiAxNy44MjkzIDMxLjgyNTNMMTcuODMxOCAzMS44MjE1QzE4LjA2NzggMzEuNDg4MyAxOC4zNDU4IDMxLjE5NjQgMTguNjY1MiAzMC45NDYxQzE4LjkyNDIgMzAuNzMyNCAxOS4yMDU5IDMwLjU1NSAxOS41MTAxIDMwLjQxNEMxOS4wMzk4IDI5Ljg4ODUgMTguODA1NSAyOS4yNDE5IDE4LjgwNTUgMjguNDgzNUMxOC44MDU1IDI4LjA3NDUgMTguODgzMiAyNy42ODUxIDE5LjAzOSAyNy4zMTY3QzE5LjE5MzkgMjYuOTUwNyAxOS40MDYgMjYuNjMyIDE5LjY3NTYgMjYuMzYyM0MxOS45NTc5IDI2LjA4MDEgMjAuMjgzIDI1Ljg2MDkgMjAuNjUwMSAyNS43MDU2QzIxLjAxODQgMjUuNTQ5OCAyMS40MDc4IDI1LjQ3MjEgMjEuODE2OCAyNS40NzIxQzIyLjIyNTkgMjUuNDcyMSAyMi42MTUyIDI1LjU0OTggMjIuOTgzNiAyNS43MDU2TDIzLjAwMDggMjUuNzEzQzIzLjAyNzEgMjUuNjg0OSAyMy4wNTM4IDI1LjY1NzMgMjMuMDgxIDI1LjYzQzIzLjQyOCAyNS4yODMxIDIzLjgyNjkgMjUuMDE0MiAyNC4yNzc5IDI0LjgyMzRDMjQuNzI4OSAyNC42MzI2IDI1LjIwNTkgMjQuNTM3MiAyNS43MDg5IDI0LjUzNzJDMjYuMjEyIDI0LjUzNzIgMjYuNjg5IDI0LjYzMjYgMjcuMTQgMjQuODIzNEMyNy41OTA5IDI1LjAxNDIgMjcuOTgxMiAyNS4yODMxIDI4LjMxMDggMjUuNjNDMjguNjU3NyAyNS45NTk2IDI4LjkyNjYgMjYuMzQ5OSAyOS4xMTc0IDI2LjgwMDlDMjkuMzA4MiAyNy4yNTE5IDI5LjQwMzYgMjcuNzI4OSAyOS40MDM2IDI4LjIzMTlDMjkuNDAzNiAyOC43MzQ5IDI5LjMwODIgMjkuMjEyIDI5LjExNzQgMjkuNjYzQzI4LjkyNjYgMzAuMDk2NiAyOC42NjY0IDMwLjQ3ODIgMjguMzM2OCAzMC44MDc4Wk0yMC4wMzY5IDM0LjA2MDFDMTkuOTgyMiAzNC4yMzAxIDE5LjkzNzIgMzQuNDA0MyAxOS45MDE3IDM0LjU4MjdIMTguNTY3MlYzNC4xODI3QzE4LjU2NzIgMzMuODE1NyAxOC42MzY3IDMzLjQ2OTMgMTguNzc1MiAzMy4xNDJDMTguOTE0NiAzMi44MTI0IDE5LjEwMzkgMzIuNTI5IDE5LjM0MjYgMzIuMjkwM0MxOS41OTYyIDMyLjAzNjcgMTkuODgwMyAzMS44NDEyIDIwLjE5NTMgMzEuNzAyNEMyMC41MjE2IDMxLjU2NDUgMjAuODc0MyAzMS40OTQ5IDIxLjI1NDkgMzEuNDk0OUgyMS44NzA4QzIxLjgzMTUgMzEuNTI1NCAyMS43OTI2IDMxLjU1NjYgMjEuNzU0MSAzMS41ODg0QzIxLjM1NTEgMzEuOTAwNiAyMS4wMDgyIDMyLjI2NDggMjAuNzEzNCAzMi42ODExQzIwLjQzNTggMzMuMDk3NCAyMC4yMTAzIDMzLjU1NzEgMjAuMDM2OSAzNC4wNjAxWk0yNS43MDg5IDI2LjAyMDNDMjUuMTAxOCAyNi4wMjAzIDI0LjU4MTUgMjYuMjM3MSAyNC4xNDc4IDI2LjY3MDhDMjMuNzE0MiAyNy4xMDQ0IDIzLjQ5NzMgMjcuNjI0OCAyMy40OTczIDI4LjIzMTlDMjMuNDk3MyAyOC44MzkgMjMuNzE0MiAyOS4zNTk0IDI0LjE0NzggMjkuNzkzQzI0LjU4MTUgMzAuMjI2NyAyNS4xMDE4IDMwLjQ0MzUgMjUuNzA4OSAzMC40NDM1QzI2LjMxNiAzMC40NDM1IDI2LjgzNjQgMzAuMjI2NyAyNy4yNyAyOS43OTNDMjcuNzAzNyAyOS4zNTk0IDI3LjkyMDUgMjguODM5IDI3LjkyMDUgMjguMjMxOUMyNy45MjA1IDI3LjYyNDggMjcuNzAzNyAyNy4xMDQ0IDI3LjI3IDI2LjY3MDhDMjYuODM2NCAyNi4yMzcxIDI2LjMxNiAyNi4wMjAzIDI1LjcwODkgMjYuMDIwM1pNMjIuMDE0MyAyOC4yMzE5QzIyLjAxNDMgMjguODU5NiAyMi4xNDM2IDI5LjQyMTEgMjIuNDAyMyAyOS45MTYzQzIyLjIyMjMgMjkuOTkwNiAyMi4wMjc1IDMwLjAyNzQgMjEuODE2OCAzMC4wMjc0QzIxLjM5MiAzMC4wMjc0IDIxLjAzMTcgMjkuODc3NiAyMC43MjcyIDI5LjU3MzFDMjAuNDIyOCAyOS4yNjg3IDIwLjI3MjkgMjguOTA4MyAyMC4yNzI5IDI4LjQ4MzVDMjAuMjcyOSAyOC4wNTg3IDIwLjQyMjggMjcuNjk4MyAyMC43MjcyIDI3LjM5MzlDMjEuMDMxNyAyNy4wODk0IDIxLjM5MiAyNi45Mzk2IDIxLjgxNjggMjYuOTM5NkMyMS45NjA1IDI2LjkzOTYgMjIuMDk2OSAyNi45NTY3IDIyLjIyNjIgMjYuOTkxMkMyMi4wODQ5IDI3LjM4NTUgMjIuMDE0MyAyNy43OTkxIDIyLjAxNDMgMjguMjMxOVoiIGNsaXAtcnVsZT0iZXZlbm9kZCIgZmlsbC1ydWxlPSJldmVub2RkIi8+JiN4YTs8ZGVmcz4mI3hhOzxsaW5lYXJHcmFkaWVudCBncmFkaWVudFVuaXRzPSJ1c2VyU3BhY2VPblVzZSIgeTI9IjQ0LjI3OTIiIHgyPSI0MS41NjQ1IiB5MT0iNi44NDc3NSIgeDE9IjQuODUyODciIGlkPSJwYWludDBfbGluZWFyXzI2MjJfMjA0NzUiPiYjeGE7PHN0b3Agc3RvcC1jb2xvcj0id2hpdGUiLz4mI3hhOzxzdG9wIHN0b3AtY29sb3I9IiNFQUVDRUUiIG9mZnNldD0iMSIvPiYjeGE7PC9saW5lYXJHcmFkaWVudD4mI3hhOzxyYWRpYWxHcmFkaWVudCBncmFkaWVudFRyYW5zZm9ybT0idHJhbnNsYXRlKDE1LjI1ODMgMTUuOTk1NCkgcm90YXRlKDQzLjg3NzkpIHNjYWxlKDI1Ljg1MjQgNDguODExNykiIGdyYWRpZW50VW5pdHM9InVzZXJTcGFjZU9uVXNlIiByPSIxIiBjeT0iMCIgY3g9IjAiIGlkPSJwYWludDFfcmFkaWFsXzI2MjJfMjA0NzUiPiYjeGE7PHN0b3Agc3RvcC1jb2xvcj0iIzAxOTVGRiIvPiYjeGE7PHN0b3Agc3RvcC1jb2xvcj0iIzExNDdFOSIgb2Zmc2V0PSIxIi8+JiN4YTs8L3JhZGlhbEdyYWRpZW50PiYjeGE7PHJhZGlhbEdyYWRpZW50IGdyYWRpZW50VHJhbnNmb3JtPSJ0cmFuc2xhdGUoMTUuMjUyMiAxNi4wODc2KSByb3RhdGUoNDMuNTYwMikgc2NhbGUoMjUuODcyNyAyMy41NDcxKSIgZ3JhZGllbnRVbml0cz0idXNlclNwYWNlT25Vc2UiIHI9IjEiIGN5PSIwIiBjeD0iMCIgaWQ9InBhaW50Ml9yYWRpYWxfMjYyMl8yMDQ3NSI+JiN4YTs8c3RvcCBzdG9wLWNvbG9yPSIjMTM0OEZGIi8+JiN4YTs8c3RvcCBzdG9wLWNvbG9yPSIjMDYyMzhEIiBvZmZzZXQ9IjEiLz4mI3hhOzwvcmFkaWFsR3JhZGllbnQ+JiN4YTs8L2RlZnM+JiN4YTs8L3N2Zz4=;points=[[0,0,0,0,0],[0,0.25,0,0,0],[0,0.5,0,0,0],[0,0.75,0,0,0],[0.25,0,0,0,0],[0.5,0,0,0,0],[0.75,0,0,0,0],[1,0,0,0,0],[1,0.25,0,0,0],[1,0.5,0,0,0],[1,0.75,0,0,0]];" parent="C4JjbqjRyMP2yy9lvFBD-512" vertex="1">
          <mxGeometry x="117.33999999999992" y="38.25" width="16" height="16" as="geometry" />
        </mxCell>
        <mxCell id="WXxtYBOuJOK_NInGcJ7v-147" value="&lt;div style=&quot;font-size: 10px; line-height: 100%;&quot;&gt;&lt;span style=&quot;font-family: arial; font-size: 10px; background-color: initial;&quot;&gt;&lt;font style=&quot;font-size: 10px;&quot;&gt;Service&lt;/font&gt;&lt;/span&gt;&lt;/div&gt;" style="text;html=1;align=left;verticalAlign=middle;resizable=0;points=[];autosize=1;strokeColor=none;fillColor=none;fontSize=10;fontColor=#1D2D3E;fontFamily=Helvetica;labelPosition=center;verticalLabelPosition=middle;" parent="C4JjbqjRyMP2yy9lvFBD-512" vertex="1">
          <mxGeometry x="141.33999999999992" y="33.75" width="51" height="23" as="geometry" />
        </mxCell>
        <mxCell id="_qOZEfST5oPCIHCsSwYm-2" value="" style="endArrow=blockThin;html=1;strokeColor=#475E75;bendable=1;rounded=0;endFill=1;endSize=4;strokeWidth=1.5;startSize=4;startArrow=blockThin;startFill=1;entryX=0.04;entryY=0.52;entryDx=0;entryDy=0;entryPerimeter=0;" parent="C4JjbqjRyMP2yy9lvFBD-512" edge="1">
          <mxGeometry width="50" height="50" relative="1" as="geometry">
            <mxPoint x="215" y="41.77999999999997" as="sourcePoint" />
            <mxPoint x="237" y="41.77999999999997" as="targetPoint" />
            <Array as="points" />
          </mxGeometry>
        </mxCell>
        <mxCell id="_qOZEfST5oPCIHCsSwYm-3" value="&lt;div style=&quot;font-size: 10px; line-height: 100%;&quot;&gt;&lt;span style=&quot;font-family: arial; font-size: 10px; background-color: initial;&quot;&gt;&lt;font style=&quot;font-size: 10px;&quot;&gt;Mutual Trust&lt;/font&gt;&lt;/span&gt;&lt;/div&gt;" style="text;html=1;align=left;verticalAlign=middle;resizable=0;points=[];autosize=1;strokeColor=none;fillColor=none;fontSize=10;fontColor=#1D2D3E;fontFamily=Helvetica;labelPosition=center;verticalLabelPosition=middle;" parent="C4JjbqjRyMP2yy9lvFBD-512" vertex="1">
          <mxGeometry x="246" y="29.5" width="73" height="23" as="geometry" />
        </mxCell>
        <mxCell id="C4JjbqjRyMP2yy9lvFBD-511" value="" style="shape=image;verticalLabelPosition=bottom;labelBackgroundColor=default;verticalAlign=top;aspect=fixed;imageAspect=0;image=data:image/svg+xml,PHN2ZyB4bWxucz0iaHR0cDovL3d3dy53My5vcmcvMjAwMC9zdmciIGZpbGw9Im5vbmUiIHZpZXdCb3g9IjAgMCAxNyAxNiIgaGVpZ2h0PSIxNiIgd2lkdGg9IjE3Ij4mI3hhOzxnIGNsaXAtcGF0aD0idXJsKCNjbGlwMF84NDlfNSkiPiYjeGE7PHBhdGggZmlsbD0idXJsKCNwYWludDBfbGluZWFyXzg0OV81KSIgZD0iTTEzLjY2OTUgMUMxNC4zNTY1IDEgMTQuOTI5NSAxLjIzIDE1LjM4ODUgMS42ODhDMTUuODQ2NSAyLjE0NiAxNi4wNzU1IDIuNzE4IDE2LjA3NTUgMy40MDZWMTIuNjI1QzE2LjA4MDQgMTIuOTQyOCAxNi4wMjIgMTMuMjU4NCAxNS45MDM5IDEzLjU1MzVDMTUuNzg1OCAxMy44NDg2IDE1LjYxMDMgMTQuMTE3MyAxNS4zODc1IDE0LjM0NEMxNC45Mjk1IDE0LjgwMiAxNC4zNTc1IDE1LjAzMSAxMy42Njk1IDE1LjAzMUgyLjQ4MTQ5QzEuNzk0NDkgMTUuMDMxIDEuMjIxNDkgMTQuODAyIDAuNzYyNDkyIDE0LjM0NEMwLjUzOTg3NyAxNC4xMTcyIDAuMzY0NTE2IDEzLjg0ODUgMC4yNDY1ODMgMTMuNTUzNEMwLjEyODY1MSAxMy4yNTgzIDAuMDcwNDk1NCAxMi45NDI3IDAuMDc1NDkyIDEyLjYyNVYzLjQwNkMwLjA3NTQ5MiAyLjcxOSAwLjMwNTQ5MiAyLjE0NiAwLjc2MzQ5MiAxLjY4N0MxLjIyMDQ5IDEuMjMgMS43OTM0OSAxIDIuNDgwNDkgMUgxMy42Njk1Wk0xLjY2OTQ5IDQuMTg4SDE0LjQ4MTVWMy40MDZDMTQuNDgxNSAyLjg2NSAxNC4yMTE1IDIuNTk0IDEzLjY2OTUgMi41OTRIMi40ODE0OUMyLjI2MzA1IDIuNTkwMDEgMi4wNTEwNyAyLjY2ODE2IDEuODg3NDkgMi44MTNDMS43NDI0OSAyLjk1OCAxLjY2OTQ5IDMuMTU2IDEuNjY5NDkgMy40MDZWNC4xODdWNC4xODhaTTE0LjQ4MTUgNS44MTNIMS42Njk0OVYxMi42MjVDMS42Njk0OSAxMi44NTUgMS43NDI0OSAxMy4wNDIgMS44ODc0OSAxMy4xODhDMi4wNTEyMSAxMy4zMzI1IDIuMjYzMTggMTMuNDEwMyAyLjQ4MTQ5IDEzLjQwNkgxMy42Njk1QzE0LjIxMDUgMTMuNDA2IDE0LjQ4MTUgMTMuMTQ2IDE0LjQ4MTUgMTIuNjI1VjUuODEyVjUuODEzWiIvPiYjeGE7PC9nPiYjeGE7PGRlZnM+JiN4YTs8bGluZWFyR3JhZGllbnQgZ3JhZGllbnRVbml0cz0idXNlclNwYWNlT25Vc2UiIHkyPSIxMS4wOTE0IiB4Mj0iMTUuMjYzNCIgeTE9IjIuMzE5ODciIHgxPSIyLjE0MzEyIiBpZD0icGFpbnQwX2xpbmVhcl84NDlfNSI+JiN4YTs8c3RvcCBzdG9wLWNvbG9yPSIjMjM5NUZGIi8+JiN4YTs8c3RvcCBzdG9wLWNvbG9yPSIjMDA1N0QyIiBvZmZzZXQ9IjEiLz4mI3hhOzwvbGluZWFyR3JhZGllbnQ+JiN4YTs8Y2xpcFBhdGggaWQ9ImNsaXAwXzg0OV81Ij4mI3hhOzxyZWN0IHRyYW5zZm9ybT0idHJhbnNsYXRlKDAuMDc1NDM5NSkiIGZpbGw9IndoaXRlIiBoZWlnaHQ9IjE2IiB3aWR0aD0iMTYiLz4mI3hhOzwvY2xpcFBhdGg+JiN4YTs8L2RlZnM+JiN4YTs8L3N2Zz4=;" parent="C4JjbqjRyMP2yy9lvFBD-512" vertex="1">
          <mxGeometry x="117.50272727272704" y="62.71818181818185" width="16" height="15.06" as="geometry" />
        </mxCell>
        <mxCell id="zgFob_YlPzD7za5YkhQJ-0" value="&lt;p style=&quot;line-height: 100%; font-size: 12px;&quot;&gt;&lt;b style=&quot;font-size: 12px;&quot;&gt;&lt;font face=&quot;arial black&quot; style=&quot;font-size: 12px;&quot; color=&quot;#ffffff&quot;&gt;8&lt;/font&gt;&lt;/b&gt;&lt;/p&gt;" style="ellipse;whiteSpace=wrap;html=1;aspect=fixed;rotation=0;gradientColor=#0057D2;strokeColor=none;gradientDirection=east;fillColor=#2395FF;rounded=0;pointerEvents=0;fontFamily=Helvetica;fontSize=12;fontColor=default;spacingTop=4;spacingBottom=4;spacingLeft=4;spacingRight=4;verticalAlign=middle;container=0;" parent="WXxtYBOuJOK_NInGcJ7v-1" vertex="1">
          <mxGeometry x="-1127" y="-1246" width="22" height="22" as="geometry" />
        </mxCell>
        <mxCell id="zgFob_YlPzD7za5YkhQJ-1" value="&lt;p style=&quot;line-height: 100%; font-size: 12px;&quot;&gt;&lt;b style=&quot;font-size: 12px;&quot;&gt;&lt;font face=&quot;arial black&quot; style=&quot;font-size: 12px;&quot; color=&quot;#ffffff&quot;&gt;9&lt;/font&gt;&lt;/b&gt;&lt;/p&gt;" style="ellipse;whiteSpace=wrap;html=1;aspect=fixed;rotation=0;gradientColor=#0057D2;strokeColor=none;gradientDirection=east;fillColor=#2395FF;rounded=0;pointerEvents=0;fontFamily=Helvetica;fontSize=12;fontColor=default;spacingTop=4;spacingBottom=4;spacingLeft=4;spacingRight=4;verticalAlign=middle;container=0;" parent="WXxtYBOuJOK_NInGcJ7v-1" vertex="1">
          <mxGeometry x="-1128" y="-1221" width="22" height="22" as="geometry" />
        </mxCell>
        <mxCell id="zgFob_YlPzD7za5YkhQJ-2" value="&lt;p style=&quot;line-height: 100%; font-size: 12px;&quot;&gt;&lt;b style=&quot;font-size: 12px;&quot;&gt;&lt;font face=&quot;arial black&quot; style=&quot;font-size: 12px;&quot; color=&quot;#ffffff&quot;&gt;10&lt;/font&gt;&lt;/b&gt;&lt;/p&gt;" style="ellipse;whiteSpace=wrap;html=1;aspect=fixed;rotation=0;gradientColor=#0057D2;strokeColor=none;gradientDirection=east;fillColor=#2395FF;rounded=0;pointerEvents=0;fontFamily=Helvetica;fontSize=12;fontColor=default;spacingTop=4;spacingBottom=4;spacingLeft=4;spacingRight=4;verticalAlign=middle;container=0;" parent="WXxtYBOuJOK_NInGcJ7v-1" vertex="1">
          <mxGeometry x="-1128" y="-1174" width="22" height="22" as="geometry" />
        </mxCell>
        <mxCell id="zgFob_YlPzD7za5YkhQJ-3" value="&lt;p style=&quot;line-height: 100%; font-size: 12px;&quot;&gt;&lt;b style=&quot;font-size: 12px;&quot;&gt;&lt;font face=&quot;arial black&quot; style=&quot;font-size: 12px;&quot; color=&quot;#ffffff&quot;&gt;11&lt;/font&gt;&lt;/b&gt;&lt;/p&gt;" style="ellipse;whiteSpace=wrap;html=1;aspect=fixed;rotation=0;gradientColor=#0057D2;strokeColor=none;gradientDirection=east;fillColor=#2395FF;rounded=0;pointerEvents=0;fontFamily=Helvetica;fontSize=12;fontColor=default;spacingTop=4;spacingBottom=4;spacingLeft=4;spacingRight=4;verticalAlign=middle;container=0;" parent="WXxtYBOuJOK_NInGcJ7v-1" vertex="1">
          <mxGeometry x="-1128" y="-1149" width="22" height="22" as="geometry" />
        </mxCell>
      </root>
    </mxGraphModel>
  </diagram>
</mxfile>
